<svg width="696" height="691" viewBox="0 0 696 691" fill="none" xmlns="http://www.w3.org/2000/svg">
<path fill-rule="evenodd" clip-rule="evenodd" d="M576.722 464.245L577.18 463.866L577.066 463.283L537.067 259.283L536.99 258.892L536.667 258.661L508.914 238.838L488.45 184.316L469.057 117.003L696.001 117.004V115.004L468.48 115.003L461.046 89.1982L460.946 88.85L460.646 88.6469L330.646 0.647008L329.69 0L329.186 1.03821L273.832 115.002L1.14002e-05 115L0 117L272.861 117.002L261.394 140.611L193.857 156.502L193.086 156.683L193.086 157.475L193.086 214.924L155.552 238.63L155.234 238.83L155.127 239.191L97.6051 433.339L97.4766 433.773L97.7174 434.156L193.239 586.008L193.323 586.14L193.443 586.241L317.442 690.241L318.32 690.977L318.931 690.008L376.771 598.262L460.497 560.386L460.619 560.331L460.723 560.245L576.722 464.245ZM275.084 117.002L262.985 141.912L262.777 142.34L262.315 142.449L195.086 158.267L195.086 215.475V216.026L194.62 216.321L156.938 240.12L99.6512 433.474L194.849 584.81L317.85 687.973L375.239 596.942L375.399 596.688L375.673 596.564L459.551 558.619L574.989 463.084L535.18 260.058L507.504 240.289L507.256 240.112L507.149 239.827L486.564 184.982L486.55 184.945L486.539 184.907L466.975 117.003L275.084 117.002ZM466.399 115.003L459.224 90.1L330.48 2.95024L276.056 115.002L466.399 115.003Z" fill="#292929"/>
</svg>
