<svg width="567" height="85" viewBox="0 0 567 85" fill="none" xmlns="http://www.w3.org/2000/svg">
<path d="M7.04 64.552L6.86343 65.0199L6.87405 65.0237L7.04 64.552ZM1.152 61.288L0.745652 60.9967L0.468405 61.3833L0.840878 61.6794L1.152 61.288ZM6.016 54.504L6.3122 54.1012L5.90451 53.8014L5.60965 54.2127L6.016 54.504ZM16.256 57.256L16.5245 57.6779L16.5334 57.672L16.256 57.256ZM16 54.248L16.2451 53.8122L16.2451 53.8122L16 54.248ZM12.48 52.712L12.2943 53.1763L12.3005 53.1787L12.48 52.712ZM11.776 52.456L11.5524 52.9032L11.5842 52.9191L11.6179 52.9303L11.776 52.456ZM10.88 52.072L10.6955 52.5368L10.7044 52.5402L10.88 52.072ZM6.272 35.112L6.58784 35.4996L6.58862 35.499L6.272 35.112ZM21.888 33.384L22.0773 32.9212L21.888 33.384ZM27.264 36.456L27.6649 36.7547L27.9627 36.3551L27.564 36.056L27.264 36.456ZM22.4 42.984L22.1067 43.389L22.5062 43.6783L22.8009 43.2827L22.4 42.984ZM14.08 43.624L13.8349 44.0598L13.8455 44.0658L13.8564 44.0712L14.08 43.624ZM17.536 45.032L17.3631 45.5012L17.3885 45.5105L17.4147 45.5171L17.536 45.032ZM19.072 45.544L19.2476 45.0758L19.2476 45.0758L19.072 45.544ZM24.96 49.064L24.6167 49.4275L24.96 49.064ZM23.68 62.824L23.9974 63.2104L24.0014 63.207L23.68 62.824ZM13.568 65.268C11.5862 65.268 9.46663 64.8758 7.20595 64.0803L6.87405 65.0237C9.22137 65.8496 11.4538 66.268 13.568 66.268V65.268ZM7.21653 64.0842C4.99721 63.2467 3.08136 62.1829 1.46312 60.8966L0.840878 61.6794C2.55064 63.0385 4.56013 64.1506 6.86347 65.0198L7.21653 64.0842ZM1.55835 61.5793L6.42235 54.7953L5.60965 54.2127L0.745652 60.9967L1.55835 61.5793ZM5.71981 54.9068C8.6619 57.0701 11.3685 58.204 13.824 58.204V57.204C11.6715 57.204 9.17277 56.2045 6.3122 54.1012L5.71981 54.9068ZM13.824 58.204C14.9887 58.204 15.926 58.0587 16.5244 57.6778L15.9876 56.8342C15.6473 57.0507 14.9633 57.204 13.824 57.204V58.204ZM16.5334 57.672C17.191 57.2336 17.524 56.5832 17.524 55.784H16.524C16.524 56.2648 16.345 56.5957 15.9787 56.84L16.5334 57.672ZM17.524 55.784C17.524 54.9203 17.0437 54.2614 16.2451 53.8122L15.7549 54.6838C16.3216 55.0026 16.524 55.3677 16.524 55.784H17.524ZM16.2451 53.8122C15.5281 53.4089 14.325 52.8859 12.6595 52.2453L12.3005 53.1787C13.963 53.8181 15.1066 54.3191 15.7549 54.6838L16.2451 53.8122ZM12.6657 52.2478C12.4419 52.1582 12.1979 52.0696 11.9341 51.9817L11.6179 52.9303C11.8661 53.0131 12.0915 53.0951 12.2943 53.1762L12.6657 52.2478ZM11.9996 52.0088C11.7244 51.8712 11.4091 51.7364 11.0556 51.6038L10.7044 52.5402C11.0336 52.6636 11.3156 52.7848 11.5524 52.9032L11.9996 52.0088ZM11.0644 51.6073C8.42403 50.5595 6.48701 49.2767 5.21272 47.7799C3.94642 46.2925 3.316 44.573 3.316 42.6H2.316C2.316 44.8084 3.02958 46.7582 4.45128 48.4281C5.86499 50.0887 7.95997 51.4512 10.6956 52.5367L11.0644 51.6073ZM3.316 42.6C3.316 39.6273 4.40667 37.2769 6.58784 35.4996L5.95616 34.7244C3.52933 36.7018 2.316 39.3433 2.316 42.6H3.316ZM6.58862 35.499C8.82528 33.669 11.7762 32.732 15.488 32.732V31.732C11.6051 31.732 8.41205 32.715 5.95538 34.725L6.58862 35.499ZM15.488 32.732C17.8238 32.732 19.8911 33.1073 21.6987 33.8468L22.0773 32.9212C20.1302 32.1247 17.9309 31.732 15.488 31.732V32.732ZM21.6987 33.8468C23.5346 34.5978 25.2896 35.6002 26.964 36.856L27.564 36.056C25.825 34.7518 23.9961 33.7062 22.0773 32.9212L21.6987 33.8468ZM26.8631 36.1573L21.9991 42.6853L22.8009 43.2827L27.6649 36.7547L26.8631 36.1573ZM22.6933 42.579C20.1823 40.7608 17.9023 39.796 15.872 39.796V40.796C17.5964 40.796 19.6684 41.6232 22.1067 43.389L22.6933 42.579ZM15.872 39.796C14.8964 39.796 14.0791 39.9483 13.4916 40.3222C12.8657 40.7204 12.556 41.3348 12.556 42.088H13.556C13.556 41.6465 13.7156 41.3649 14.0284 41.1658C14.3796 40.9424 14.9703 40.796 15.872 40.796V39.796ZM12.556 42.088C12.556 42.9517 13.0363 43.6106 13.8349 44.0598L14.3251 43.1882C13.7584 42.8694 13.556 42.5043 13.556 42.088H12.556ZM13.8564 44.0712C14.5659 44.426 15.7405 44.9034 17.3631 45.5012L17.7089 44.5628C16.0888 43.966 14.9594 43.5047 14.3036 43.1768L13.8564 44.0712ZM17.4147 45.5171C17.727 45.5951 18.2169 45.7574 18.8964 46.0122L19.2476 45.0758C18.5617 44.8186 18.0276 44.6395 17.6573 44.5469L17.4147 45.5171ZM18.8964 46.0122C21.2361 46.8895 23.138 48.031 24.6167 49.4275L25.3033 48.7005C23.71 47.1957 21.6866 45.9905 19.2476 45.0758L18.8964 46.0122ZM24.6167 49.4275C26.0303 50.7626 26.764 52.6447 26.764 55.144H27.764C27.764 52.4379 26.9617 50.2668 25.3033 48.7005L24.6167 49.4275ZM26.764 55.144C26.764 58.1106 25.6349 60.5305 23.3586 62.441L24.0014 63.207C26.5038 61.1068 27.764 58.4067 27.764 55.144H26.764ZM23.3626 62.4376C21.093 64.3019 17.8507 65.268 13.568 65.268V66.268C17.9893 66.268 21.4883 65.2714 23.9974 63.2104L23.3626 62.4376ZM39.0495 63.784L38.8047 64.22L38.8106 64.2232L39.0495 63.784ZM33.1615 57.96L32.7264 58.2066L32.7315 58.2151L33.1615 57.96ZM33.1615 40.104L32.7296 39.8521L32.7283 39.8543L33.1615 40.104ZM39.0495 34.28L39.2884 34.7193L39.2943 34.716L39.0495 34.28ZM54.6655 34.28L54.4207 34.716L54.4266 34.7192L54.6655 34.28ZM60.4895 40.104L60.0544 40.3506L60.0595 40.3591L60.4895 40.104ZM60.4895 57.96L60.0576 57.7081L60.0563 57.7104L60.4895 57.96ZM54.6655 63.784L54.9044 64.2233L54.9103 64.22L54.6655 63.784ZM46.8575 65.268C44.1675 65.268 41.6469 64.6275 39.2884 63.3448L38.8106 64.2232C41.3161 65.5859 44.0009 66.268 46.8575 66.268V65.268ZM39.2943 63.348C36.9427 62.0278 35.0424 60.1506 33.5915 57.7049L32.7315 58.2151C34.2673 60.8041 36.2923 62.8095 38.8047 64.22L39.2943 63.348ZM33.5965 57.7135C32.1948 55.2399 31.4855 52.3409 31.4855 49H30.4855C30.4855 52.4858 31.2268 55.5601 32.7265 58.2065L33.5965 57.7135ZM31.4855 49C31.4855 45.6589 32.1949 42.7827 33.5947 40.3536L32.7283 39.8543C31.2268 42.4599 30.4855 45.5145 30.4855 49H31.4855ZM33.5934 40.3559C35.0441 37.869 36.9423 35.9952 39.2884 34.7192L38.8106 33.8408C36.2927 35.2102 34.2656 37.219 32.7296 39.8521L33.5934 40.3559ZM39.2943 34.716C41.652 33.3924 44.1704 32.732 46.8575 32.732V31.732C43.9979 31.732 41.311 32.437 38.8047 33.844L39.2943 34.716ZM46.8575 32.732C49.5446 32.732 52.063 33.3924 54.4207 34.716L54.9103 33.844C52.404 32.437 49.7171 31.732 46.8575 31.732V32.732ZM54.4266 34.7192C56.7713 35.9944 58.6469 37.8665 60.0545 40.3505L60.9245 39.8575C59.4308 37.2215 57.4237 35.2109 54.9044 33.8408L54.4266 34.7192ZM60.0595 40.3591C61.4999 42.7872 62.2295 45.6613 62.2295 49H63.2295C63.2295 45.512 62.4658 42.4555 60.9195 39.8489L60.0595 40.3591ZM62.2295 49C62.2295 52.3384 61.4999 55.2355 60.0576 57.7081L60.9214 58.2119C62.4657 55.5645 63.2295 52.4882 63.2295 49H62.2295ZM60.0563 57.7104C58.6486 60.1531 56.7709 62.0286 54.4207 63.348L54.9103 64.22C57.4241 62.8087 59.4291 60.8015 60.9227 58.2096L60.0563 57.7104ZM54.4266 63.3448C52.0681 64.6275 49.5475 65.268 46.8575 65.268V66.268C49.7141 66.268 52.3989 65.5859 54.9044 64.2232L54.4266 63.3448ZM46.8575 57.436C48.5707 57.436 49.8879 56.6806 50.7459 55.2031C51.5797 53.767 51.9655 51.6773 51.9655 49H50.9655C50.9655 51.6133 50.5833 53.4917 49.8811 54.7009C49.2031 55.8687 48.2163 56.436 46.8575 56.436V57.436ZM51.9655 49C51.9655 46.3227 51.5797 44.233 50.7459 42.7969C49.8879 41.3194 48.5707 40.564 46.8575 40.564V41.564C48.2163 41.564 49.2031 42.1313 49.8811 43.2991C50.5833 44.5083 50.9655 46.3867 50.9655 49H51.9655ZM46.8575 40.564C45.1443 40.564 43.8271 41.3194 42.9691 42.7969C42.1353 44.233 41.7495 46.3227 41.7495 49H42.7495C42.7495 46.3867 43.1317 44.5083 43.8339 43.2991C44.5119 42.1313 45.4987 41.564 46.8575 41.564V40.564ZM41.7495 49C41.7495 51.6773 42.1353 53.767 42.9691 55.2031C43.8271 56.6806 45.1443 57.436 46.8575 57.436V56.436C45.4987 56.436 44.5119 55.8687 43.8339 54.7009C43.1317 53.4917 42.7495 51.6133 42.7495 49H41.7495ZM70.702 62.632L70.2951 62.9226L70.2991 62.928L70.702 62.632ZM68.462 20.456V19.956H67.962V20.456H68.462ZM79.47 20.456H79.97V19.956H79.47V20.456ZM79.982 56.296L79.5776 56.5901L79.5929 56.6111L79.6104 56.6305L79.982 56.296ZM82.414 56.808L82.9078 56.7296L82.8223 56.1905L82.2927 56.3229L82.414 56.808ZM83.694 64.872L83.8998 65.3277L84.2477 65.1706L84.1878 64.7936L83.694 64.872ZM78.318 65.268C74.8731 65.268 72.5149 64.2551 71.1049 62.336L70.2991 62.928C71.9611 65.1902 74.6802 66.268 78.318 66.268V65.268ZM71.1089 62.3414C69.6994 60.3681 68.962 57.5206 68.962 53.736H67.962C67.962 57.6314 68.718 60.7146 70.2951 62.9226L71.1089 62.3414ZM68.962 53.736V20.456H67.962V53.736H68.962ZM68.462 20.956H79.47V19.956H68.462V20.956ZM78.97 20.456V54.12H79.97V20.456H78.97ZM78.97 54.12C78.97 55.1412 79.1442 55.9942 79.5776 56.5901L80.3864 56.0019C80.1371 55.6592 79.97 55.0615 79.97 54.12H78.97ZM79.6104 56.6305C80.0663 57.1371 80.62 57.436 81.262 57.436V56.436C80.9654 56.436 80.6657 56.3083 80.3536 55.9615L79.6104 56.6305ZM81.262 57.436C81.7212 57.436 82.1469 57.3902 82.5353 57.2931L82.2927 56.3229C81.9984 56.3965 81.6561 56.436 81.262 56.436V57.436ZM81.9202 56.8864L83.2002 64.9504L84.1878 64.7936L82.9078 56.7296L81.9202 56.8864ZM83.4882 64.4163C82.2562 64.9727 80.5439 65.268 78.318 65.268V66.268C80.6148 66.268 82.4865 65.966 83.8998 65.3277L83.4882 64.4163ZM84.5805 33V32.5H83.8903L84.1054 33.1558L84.5805 33ZM95.5885 33L96.0738 32.8798L95.9798 32.5H95.5885V33ZM99.0445 46.952L99.5318 46.8396L99.5298 46.8318L99.0445 46.952ZM101.349 56.936L100.861 57.0484L100.951 57.436H101.349V56.936ZM101.605 56.936V57.436H102.002L102.092 57.0484L101.605 56.936ZM103.909 46.952L103.423 46.8318L103.421 46.8396L103.909 46.952ZM107.365 33V32.5H106.973L106.879 32.8798L107.365 33ZM117.861 33L118.337 33.1507L118.543 32.5H117.861V33ZM107.749 65V65.5H108.115L108.225 65.1507L107.749 65ZM95.0765 65L94.6014 65.1558L94.7143 65.5H95.0765V65ZM84.5805 33.5H95.5885V32.5H84.5805V33.5ZM95.1032 33.1202L98.5592 47.0722L99.5298 46.8318L96.0738 32.8798L95.1032 33.1202ZM98.5573 47.0644L100.861 57.0484L101.836 56.8236L99.5317 46.8396L98.5573 47.0644ZM101.349 57.436H101.605V56.436H101.349V57.436ZM102.092 57.0484L104.396 47.0644L103.421 46.8396L101.117 56.8236L102.092 57.0484ZM104.394 47.0722L107.85 33.1202L106.879 32.8798L103.423 46.8318L104.394 47.0722ZM107.365 33.5H117.861V32.5H107.365V33.5ZM117.384 32.8493L107.272 64.8493L108.225 65.1507L118.337 33.1507L117.384 32.8493ZM107.749 64.5H95.0765V65.5H107.749V64.5ZM95.5516 64.8442L85.0556 32.8442L84.1054 33.1558L94.6014 65.1558L95.5516 64.8442ZM148.912 52.328V52.828H149.302L149.397 52.4493L148.912 52.328ZM130.48 52.328V51.828H129.825L129.998 52.4596L130.48 52.328ZM133.296 56.296L133.051 56.7318L133.057 56.7349L133.296 56.296ZM144.624 55.528L145.062 55.2874L144.82 54.8469L144.381 55.0909L144.624 55.528ZM148.208 62.056L148.5 62.4622L148.86 62.2038L148.646 61.8154L148.208 62.056ZM142.512 64.808L142.368 64.3291L142.366 64.3299L142.512 64.808ZM128.048 63.784L127.812 64.225L127.815 64.2266L128.048 63.784ZM122.16 58.024L121.722 58.265L121.727 58.2736L122.16 58.024ZM122.224 40.232L122.657 40.4817L122.659 40.4785L122.224 40.232ZM127.92 34.344L128.171 34.7762L128.177 34.7727L127.92 34.344ZM145.776 36.584L146.162 36.2661L146.162 36.2661L145.776 36.584ZM140.016 45.16V45.66H140.516V45.16H140.016ZM132.464 41.704L132.779 42.0926L132.781 42.091L132.464 41.704ZM130.48 45.16L129.997 45.0295L129.827 45.66H130.48V45.16ZM148.86 47.72C148.86 49.5754 148.712 51.0667 148.427 52.2067L149.397 52.4493C149.709 51.2 149.86 49.6193 149.86 47.72H148.86ZM148.912 51.828H130.48V52.828H148.912V51.828ZM129.998 52.4596C130.536 54.4328 131.542 55.8831 133.051 56.7318L133.541 55.8602C132.319 55.1729 131.448 53.9779 130.962 52.1964L129.998 52.4596ZM133.057 56.7349C134.546 57.5475 136.23 57.948 138.096 57.948V56.948C136.378 56.948 134.862 56.5805 133.535 55.8571L133.057 56.7349ZM138.096 57.948C140.25 57.948 142.509 57.2748 144.867 55.9651L144.381 55.0909C142.131 56.3412 140.038 56.948 138.096 56.948V57.948ZM144.186 55.7686L147.77 62.2966L148.646 61.8154L145.062 55.2874L144.186 55.7686ZM147.916 61.6498C146.301 62.8095 144.453 63.7036 142.368 64.3291L142.656 65.2869C144.837 64.6324 146.787 63.6918 148.5 62.4622L147.916 61.6498ZM142.366 64.3299C140.315 64.9577 138.38 65.268 136.56 65.268V66.268C138.494 66.268 140.528 65.9383 142.658 65.2861L142.366 64.3299ZM136.56 65.268C133.475 65.268 130.719 64.6223 128.281 63.3414L127.815 64.2266C130.412 65.591 133.331 66.268 136.56 66.268V65.268ZM128.284 63.343C125.894 62.066 123.999 60.2137 122.593 57.7744L121.727 58.2736C123.222 60.8689 125.252 62.8566 127.812 64.225L128.284 63.343ZM122.598 57.783C121.238 55.3093 120.548 52.3872 120.548 49H119.548C119.548 52.5248 120.266 55.6187 121.722 58.265L122.598 57.783ZM120.548 49C120.548 45.7467 121.256 42.9126 122.657 40.4816L121.791 39.9823C120.29 42.5861 119.548 45.5973 119.548 49H120.548ZM122.659 40.4785C124.07 37.9889 125.908 36.0933 128.171 34.7762L127.669 33.9118C125.239 35.3254 123.28 37.3551 121.789 39.9855L122.659 40.4785ZM128.177 34.7727C130.449 33.4097 132.857 32.732 135.408 32.732V31.732C132.669 31.732 130.084 32.4623 127.663 33.9153L128.177 34.7727ZM135.408 32.732C139.815 32.732 143.115 34.1395 145.39 36.9019L146.162 36.2661C143.658 33.2259 140.047 31.732 135.408 31.732V32.732ZM145.39 36.9019C147.691 39.6964 148.86 43.2888 148.86 47.72H149.86C149.86 43.1059 148.639 39.2743 146.162 36.2661L145.39 36.9019ZM140.516 45.16C140.516 43.7101 140.152 42.4819 139.382 41.5197L138.602 42.1443C139.197 42.8888 139.516 43.8792 139.516 45.16H140.516ZM139.382 41.5197C138.571 40.505 137.287 40.052 135.664 40.052V41.052C137.113 41.052 138.048 41.4523 138.602 42.1443L139.382 41.5197ZM135.664 40.052C134.352 40.052 133.174 40.4771 132.147 41.317L132.781 42.091C133.631 41.3949 134.587 41.052 135.664 41.052V40.052ZM132.149 41.3154C131.144 42.1295 130.44 43.3904 129.997 45.0295L130.963 45.2905C131.373 43.7723 131.992 42.7292 132.779 42.0926L132.149 41.3154ZM130.48 45.66H140.016V44.66H130.48V45.66ZM185.312 62.312L184.928 62.6321L184.928 62.6321L185.312 62.312ZM182.433 41.576H182.933V41.076H182.433V41.576ZM178.209 41.576H177.709V42.076H178.209V41.576ZM178.209 33.384L178.169 32.8855L177.709 32.9219V33.384H178.209ZM183.073 33L183.112 33.4984L183.506 33.4673L183.567 33.076L183.073 33ZM184.353 24.68V24.18H183.924L183.858 24.604L184.353 24.68ZM193.441 24.68H193.941V24.18H193.441V24.68ZM193.441 33H192.941V33.5H193.441V33ZM200.737 33H201.237V32.5H200.737V33ZM200.737 41.576V42.076H201.237V41.576H200.737ZM193.441 41.576V41.076H192.941V41.576H193.441ZM194.465 56.104L194.1 56.4467L194.106 56.4522L194.111 56.4576L194.465 56.104ZM200.097 56.68L200.586 56.5774L200.471 56.0282L199.938 56.2057L200.097 56.68ZM201.761 64.616L201.909 65.0935L202.343 64.9587L202.25 64.5134L201.761 64.616ZM194.208 65.268C190.293 65.268 187.492 64.1465 185.697 61.9919L184.928 62.6321C186.973 65.0855 190.103 66.268 194.208 66.268V65.268ZM185.697 61.9919C183.875 59.8059 182.933 56.7337 182.933 52.712H181.933C181.933 56.8823 182.91 60.2101 184.928 62.6321L185.697 61.9919ZM182.933 52.712V41.576H181.933V52.712H182.933ZM182.433 41.076H178.209V42.076H182.433V41.076ZM178.709 41.576V33.384H177.709V41.576H178.709ZM178.248 33.8824L183.112 33.4984L183.033 32.5016L178.169 32.8855L178.248 33.8824ZM183.567 33.076L184.847 24.756L183.858 24.604L182.578 32.924L183.567 33.076ZM184.353 25.18H193.441V24.18H184.353V25.18ZM192.941 24.68V33H193.941V24.68H192.941ZM193.441 33.5H200.737V32.5H193.441V33.5ZM200.237 33V41.576H201.237V33H200.237ZM200.737 41.076H193.441V42.076H200.737V41.076ZM192.941 41.576V52.52H193.941V41.576H192.941ZM192.941 52.52C192.941 54.2314 193.288 55.5833 194.1 56.4467L194.829 55.7613C194.276 55.174 193.941 54.1366 193.941 52.52H192.941ZM194.111 56.4576C194.942 57.2885 196.014 57.692 197.281 57.692V56.692C196.243 56.692 195.438 56.3701 194.818 55.7504L194.111 56.4576ZM197.281 57.692C198.2 57.692 199.193 57.5084 200.255 57.1543L199.938 56.2057C198.953 56.5343 198.068 56.692 197.281 56.692V57.692ZM199.607 56.7826L201.271 64.7186L202.25 64.5134L200.586 56.5774L199.607 56.7826ZM201.612 64.1385C199.185 64.8918 196.718 65.268 194.208 65.268V66.268C196.819 66.268 199.387 65.8762 201.909 65.0935L201.612 64.1385ZM232.6 52.328V52.828H232.99L233.085 52.4493L232.6 52.328ZM214.168 52.328V51.828H213.513L213.685 52.4596L214.168 52.328ZM216.984 56.296L216.738 56.7318L216.744 56.7349L216.984 56.296ZM228.312 55.528L228.75 55.2874L228.508 54.8469L228.069 55.0909L228.312 55.528ZM231.896 62.056L232.187 62.4622L232.547 62.2038L232.334 61.8154L231.896 62.056ZM226.2 64.808L226.056 64.3291L226.053 64.3299L226.2 64.808ZM211.736 63.784L211.5 64.225L211.503 64.2266L211.736 63.784ZM205.848 58.024L205.409 58.265L205.414 58.2736L205.848 58.024ZM205.911 40.232L206.345 40.4817L206.347 40.4785L205.911 40.232ZM211.608 34.344L211.859 34.7762L211.865 34.7727L211.608 34.344ZM229.464 36.584L229.849 36.2661L229.849 36.2661L229.464 36.584ZM223.704 45.16V45.66H224.204V45.16H223.704ZM216.152 41.704L216.466 42.0926L216.468 42.091L216.152 41.704ZM214.168 45.16L213.685 45.0295L213.514 45.66H214.168V45.16ZM232.548 47.72C232.548 49.5754 232.399 51.0667 232.114 52.2067L233.085 52.4493C233.397 51.2 233.548 49.6193 233.548 47.72H232.548ZM232.6 51.828H214.168V52.828H232.6V51.828ZM213.685 52.4596C214.223 54.4328 215.23 55.8831 216.738 56.7318L217.229 55.8602C216.007 55.1729 215.136 53.9779 214.65 52.1964L213.685 52.4596ZM216.744 56.7349C218.234 57.5475 219.918 57.948 221.784 57.948V56.948C220.065 56.948 218.549 56.5805 217.223 55.8571L216.744 56.7349ZM221.784 57.948C223.937 57.948 226.197 57.2748 228.554 55.9651L228.069 55.0909C225.818 56.3412 223.726 56.948 221.784 56.948V57.948ZM227.873 55.7686L231.457 62.2966L232.334 61.8154L228.75 55.2874L227.873 55.7686ZM231.604 61.6498C229.989 62.8095 228.141 63.7036 226.056 64.3291L226.343 65.2869C228.525 64.6324 230.474 63.6918 232.187 62.4622L231.604 61.6498ZM226.053 64.3299C224.002 64.9577 222.068 65.268 220.248 65.268V66.268C222.182 66.268 224.215 65.9383 226.346 65.2861L226.053 64.3299ZM220.248 65.268C217.162 65.268 214.406 64.6223 211.968 63.3414L211.503 64.2266C214.1 65.591 217.018 66.268 220.248 66.268V65.268ZM211.971 63.343C209.582 62.066 207.686 60.2137 206.281 57.7744L205.414 58.2736C206.91 60.8689 208.94 62.8566 211.5 64.225L211.971 63.343ZM206.286 57.783C204.925 55.3093 204.236 52.3872 204.236 49H203.236C203.236 52.5248 203.954 55.6187 205.409 58.265L206.286 57.783ZM204.236 49C204.236 45.7467 204.944 42.9126 206.345 40.4816L205.478 39.9823C203.978 42.5861 203.236 45.5973 203.236 49H204.236ZM206.347 40.4785C207.757 37.9889 209.595 36.0933 211.859 34.7762L211.356 33.9118C208.926 35.3254 206.967 37.3551 205.476 39.9855L206.347 40.4785ZM211.865 34.7727C214.137 33.4097 216.544 32.732 219.096 32.732V31.732C216.356 31.732 213.772 32.4623 211.35 33.9153L211.865 34.7727ZM219.096 32.732C223.502 32.732 226.803 34.1395 229.078 36.9019L229.849 36.2661C227.346 33.2259 223.734 31.732 219.096 31.732V32.732ZM229.078 36.9019C231.379 39.6964 232.548 43.2888 232.548 47.72H233.548C233.548 43.1059 232.327 39.2743 229.849 36.2661L229.078 36.9019ZM224.204 45.16C224.204 43.7101 223.84 42.4819 223.07 41.5197L222.289 42.1443C222.885 42.8888 223.204 43.8792 223.204 45.16H224.204ZM223.07 41.5197C222.258 40.505 220.975 40.052 219.352 40.052V41.052C220.8 41.052 221.735 41.4523 222.289 42.1443L223.07 41.5197ZM219.352 40.052C218.04 40.052 216.861 40.4771 215.835 41.317L216.468 42.091C217.319 41.3949 218.274 41.052 219.352 41.052V40.052ZM215.837 41.3154C214.831 42.1295 214.128 43.3904 213.685 45.0295L214.65 45.2905C215.061 43.7723 215.68 42.7292 216.466 42.0926L215.837 41.3154ZM214.168 45.66H223.704V44.66H214.168V45.66ZM242.415 64.552L242.238 65.0199L242.249 65.0237L242.415 64.552ZM236.527 61.288L236.121 60.9967L235.843 61.3833L236.216 61.6794L236.527 61.288ZM241.391 54.504L241.687 54.1012L241.28 53.8014L240.985 54.2127L241.391 54.504ZM251.631 57.256L251.899 57.6779L251.908 57.672L251.631 57.256ZM251.375 54.248L251.62 53.8122L251.62 53.8122L251.375 54.248ZM247.855 52.712L247.669 53.1763L247.676 53.1787L247.855 52.712ZM247.151 52.456L246.927 52.9032L246.959 52.9191L246.993 52.9303L247.151 52.456ZM246.255 52.072L246.071 52.5368L246.079 52.5402L246.255 52.072ZM241.647 35.112L241.963 35.4996L241.964 35.499L241.647 35.112ZM257.263 33.384L257.452 32.9212L257.263 33.384ZM262.639 36.456L263.04 36.7547L263.338 36.3551L262.939 36.056L262.639 36.456ZM257.775 42.984L257.482 43.389L257.881 43.6783L258.176 43.2827L257.775 42.984ZM249.455 43.624L249.21 44.0598L249.22 44.0658L249.231 44.0712L249.455 43.624ZM252.911 45.032L252.738 45.5012L252.764 45.5105L252.79 45.5171L252.911 45.032ZM254.447 45.544L254.623 45.0758L254.623 45.0758L254.447 45.544ZM260.335 49.064L259.992 49.4275L260.335 49.064ZM259.055 62.824L259.372 63.2104L259.376 63.207L259.055 62.824ZM248.943 65.268C246.961 65.268 244.842 64.8758 242.581 64.0803L242.249 65.0237C244.596 65.8496 246.829 66.268 248.943 66.268V65.268ZM242.592 64.0842C240.372 63.2467 238.456 62.1829 236.838 60.8966L236.216 61.6794C237.926 63.0385 239.935 64.1506 242.238 65.0198L242.592 64.0842ZM236.933 61.5793L241.797 54.7953L240.985 54.2127L236.121 60.9967L236.933 61.5793ZM241.095 54.9068C244.037 57.0701 246.744 58.204 249.199 58.204V57.204C247.046 57.204 244.548 56.2045 241.687 54.1012L241.095 54.9068ZM249.199 58.204C250.364 58.204 251.301 58.0587 251.899 57.6778L251.363 56.8342C251.022 57.0507 250.338 57.204 249.199 57.204V58.204ZM251.908 57.672C252.566 57.2336 252.899 56.5832 252.899 55.784H251.899C251.899 56.2648 251.72 56.5957 251.354 56.84L251.908 57.672ZM252.899 55.784C252.899 54.9203 252.419 54.2614 251.62 53.8122L251.13 54.6838C251.697 55.0026 251.899 55.3677 251.899 55.784H252.899ZM251.62 53.8122C250.903 53.4089 249.7 52.8859 248.034 52.2453L247.676 53.1787C249.338 53.8181 250.482 54.3191 251.13 54.6838L251.62 53.8122ZM248.041 52.2478C247.817 52.1582 247.573 52.0696 247.309 51.9817L246.993 52.9303C247.241 53.0131 247.466 53.0951 247.669 53.1762L248.041 52.2478ZM247.375 52.0088C247.099 51.8712 246.784 51.7364 246.431 51.6038L246.079 52.5402C246.409 52.6636 246.691 52.7848 246.927 52.9032L247.375 52.0088ZM246.439 51.6073C243.799 50.5595 241.862 49.2767 240.588 47.7799C239.321 46.2925 238.691 44.573 238.691 42.6H237.691C237.691 44.8084 238.405 46.7582 239.826 48.4281C241.24 50.0887 243.335 51.4512 246.071 52.5367L246.439 51.6073ZM238.691 42.6C238.691 39.6273 239.782 37.2769 241.963 35.4996L241.331 34.7244C238.904 36.7018 237.691 39.3433 237.691 42.6H238.691ZM241.964 35.499C244.2 33.669 247.151 32.732 250.863 32.732V31.732C246.98 31.732 243.787 32.715 241.33 34.725L241.964 35.499ZM250.863 32.732C253.199 32.732 255.266 33.1073 257.074 33.8468L257.452 32.9212C255.505 32.1247 253.306 31.732 250.863 31.732V32.732ZM257.074 33.8468C258.91 34.5978 260.665 35.6002 262.339 36.856L262.939 36.056C261.2 34.7518 259.371 33.7062 257.452 32.9212L257.074 33.8468ZM262.238 36.1573L257.374 42.6853L258.176 43.2827L263.04 36.7547L262.238 36.1573ZM258.068 42.579C255.557 40.7608 253.277 39.796 251.247 39.796V40.796C252.971 40.796 255.043 41.6232 257.482 43.389L258.068 42.579ZM251.247 39.796C250.271 39.796 249.454 39.9483 248.867 40.3222C248.241 40.7204 247.931 41.3348 247.931 42.088H248.931C248.931 41.6465 249.091 41.3649 249.403 41.1658C249.755 40.9424 250.345 40.796 251.247 40.796V39.796ZM247.931 42.088C247.931 42.9517 248.411 43.6106 249.21 44.0598L249.7 43.1882C249.133 42.8694 248.931 42.5043 248.931 42.088H247.931ZM249.231 44.0712C249.941 44.426 251.116 44.9034 252.738 45.5012L253.084 44.5628C251.464 43.966 250.334 43.5047 249.679 43.1768L249.231 44.0712ZM252.79 45.5171C253.102 45.5951 253.592 45.7574 254.271 46.0122L254.623 45.0758C253.937 44.8186 253.403 44.6395 253.032 44.5469L252.79 45.5171ZM254.271 46.0122C256.611 46.8895 258.513 48.031 259.992 49.4275L260.678 48.7005C259.085 47.1957 257.062 45.9905 254.623 45.0758L254.271 46.0122ZM259.992 49.4275C261.405 50.7626 262.139 52.6447 262.139 55.144H263.139C263.139 52.4379 262.337 50.2668 260.678 48.7005L259.992 49.4275ZM262.139 55.144C262.139 58.1106 261.01 60.5305 258.734 62.441L259.376 63.207C261.879 61.1068 263.139 58.4067 263.139 55.144H262.139ZM258.738 62.4376C256.468 64.3019 253.226 65.268 248.943 65.268V66.268C253.364 66.268 256.863 65.2714 259.372 63.2104L258.738 62.4376ZM271.688 62.312L271.303 62.6321L271.303 62.6321L271.688 62.312ZM268.808 41.576H269.308V41.076H268.808V41.576ZM264.584 41.576H264.084V42.076H264.584V41.576ZM264.584 33.384L264.544 32.8855L264.084 32.9219V33.384H264.584ZM269.448 33L269.487 33.4984L269.881 33.4673L269.942 33.076L269.448 33ZM270.728 24.68V24.18H270.299L270.233 24.604L270.728 24.68ZM279.816 24.68H280.316V24.18H279.816V24.68ZM279.816 33H279.316V33.5H279.816V33ZM287.112 33H287.612V32.5H287.112V33ZM287.112 41.576V42.076H287.612V41.576H287.112ZM279.816 41.576V41.076H279.316V41.576H279.816ZM280.84 56.104L280.475 56.4467L280.481 56.4522L280.486 56.4576L280.84 56.104ZM286.472 56.68L286.961 56.5774L286.846 56.0282L286.313 56.2057L286.472 56.68ZM288.136 64.616L288.284 65.0935L288.718 64.9587L288.625 64.5134L288.136 64.616ZM280.583 65.268C276.668 65.268 273.867 64.1465 272.072 61.9919L271.303 62.6321C273.348 65.0855 276.478 66.268 280.583 66.268V65.268ZM272.072 61.9919C270.25 59.8059 269.308 56.7337 269.308 52.712H268.308C268.308 56.8823 269.285 60.2101 271.303 62.6321L272.072 61.9919ZM269.308 52.712V41.576H268.308V52.712H269.308ZM268.808 41.076H264.584V42.076H268.808V41.076ZM265.084 41.576V33.384H264.084V41.576H265.084ZM264.623 33.8824L269.487 33.4984L269.408 32.5016L264.544 32.8855L264.623 33.8824ZM269.942 33.076L271.222 24.756L270.233 24.604L268.953 32.924L269.942 33.076ZM270.728 25.18H279.816V24.18H270.728V25.18ZM279.316 24.68V33H280.316V24.68H279.316ZM279.816 33.5H287.112V32.5H279.816V33.5ZM286.612 33V41.576H287.612V33H286.612ZM287.112 41.076H279.816V42.076H287.112V41.076ZM279.316 41.576V52.52H280.316V41.576H279.316ZM279.316 52.52C279.316 54.2314 279.663 55.5833 280.475 56.4467L281.204 55.7613C280.651 55.174 280.316 54.1366 280.316 52.52H279.316ZM280.486 56.4576C281.317 57.2885 282.389 57.692 283.656 57.692V56.692C282.618 56.692 281.813 56.3701 281.193 55.7504L280.486 56.4576ZM283.656 57.692C284.575 57.692 285.568 57.5084 286.63 57.1543L286.313 56.2057C285.328 56.5343 284.443 56.692 283.656 56.692V57.692ZM285.982 56.7826L287.646 64.7186L288.625 64.5134L286.961 56.5774L285.982 56.7826ZM287.987 64.1385C285.56 64.8918 283.093 65.268 280.583 65.268V66.268C283.194 66.268 285.762 65.8762 288.284 65.0935L287.987 64.1385ZM318.65 33V32.5H318.15V33H318.65ZM327.61 33L328.105 32.9309L328.045 32.5H327.61V33ZM328.378 38.504L327.882 38.5731L327.942 39.004H328.378V38.504ZM328.634 38.504V39.004H328.934L329.075 38.7384L328.634 38.504ZM332.73 33.832L332.997 34.2548L332.999 34.2529L332.73 33.832ZM341.69 32.872L342.181 32.9649L342.255 32.5727L341.889 32.4135L341.69 32.872ZM339.898 42.344L339.789 42.8321L340.293 42.9441L340.389 42.4369L339.898 42.344ZM332.538 43.176L332.828 43.5829L332.831 43.581L332.538 43.176ZM329.658 47.208L329.193 47.0242L329.158 47.1127V47.208H329.658ZM329.658 65V65.5H330.158V65H329.658ZM318.65 65H318.15V65.5H318.65V65ZM318.65 33.5H327.61V32.5H318.65V33.5ZM327.114 33.0691L327.882 38.5731L328.873 38.4349L328.105 32.9309L327.114 33.0691ZM328.378 39.004H328.634V38.004H328.378V39.004ZM329.075 38.7384C330.153 36.7068 331.464 35.2225 332.996 34.2547L332.463 33.4093C330.752 34.4895 329.333 36.1199 328.192 38.2696L329.075 38.7384ZM332.999 34.2529C334.598 33.2281 336.17 32.732 337.722 32.732V31.732C335.945 31.732 334.189 32.3026 332.46 33.4111L332.999 34.2529ZM337.722 32.732C339.351 32.732 340.597 32.9421 341.49 33.3305L341.889 32.4135C340.819 31.9485 339.42 31.732 337.722 31.732V32.732ZM341.198 32.7791L339.406 42.2511L340.389 42.4369L342.181 32.9649L341.198 32.7791ZM340.006 41.8559C338.459 41.5121 337.222 41.332 336.314 41.332V42.332C337.112 42.332 338.264 42.4932 339.789 42.8321L340.006 41.8559ZM336.314 41.332C334.909 41.332 333.55 41.8255 332.244 42.771L332.831 43.581C334 42.7345 335.158 42.332 336.314 42.332V41.332ZM332.247 42.7691C330.951 43.6947 329.941 45.1299 329.193 47.0242L330.122 47.3918C330.824 45.6167 331.735 44.364 332.828 43.5829L332.247 42.7691ZM329.158 47.208V65H330.158V47.208H329.158ZM329.658 64.5H318.65V65.5H329.658V64.5ZM319.15 65V33H318.15V65H319.15ZM371.975 52.328V52.828H372.365L372.46 52.4493L371.975 52.328ZM353.543 52.328V51.828H352.888L353.06 52.4596L353.543 52.328ZM356.359 56.296L356.113 56.7318L356.119 56.7349L356.359 56.296ZM367.687 55.528L368.125 55.2874L367.883 54.8469L367.444 55.0909L367.687 55.528ZM371.271 62.056L371.562 62.4622L371.922 62.2038L371.709 61.8154L371.271 62.056ZM365.575 64.808L365.431 64.3291L365.428 64.3299L365.575 64.808ZM351.111 63.784L350.875 64.225L350.878 64.2266L351.111 63.784ZM345.223 58.024L344.784 58.265L344.789 58.2736L345.223 58.024ZM345.286 40.232L345.72 40.4817L345.722 40.4785L345.286 40.232ZM350.983 34.344L351.234 34.7762L351.24 34.7727L350.983 34.344ZM368.839 36.584L369.224 36.2661L369.224 36.2661L368.839 36.584ZM363.079 45.16V45.66H363.579V45.16H363.079ZM355.527 41.704L355.841 42.0926L355.843 42.091L355.527 41.704ZM353.543 45.16L353.06 45.0295L352.889 45.66H353.543V45.16ZM371.923 47.72C371.923 49.5754 371.774 51.0667 371.489 52.2067L372.46 52.4493C372.772 51.2 372.923 49.6193 372.923 47.72H371.923ZM371.975 51.828H353.543V52.828H371.975V51.828ZM353.06 52.4596C353.598 54.4328 354.605 55.8831 356.113 56.7318L356.604 55.8602C355.382 55.1729 354.511 53.9779 354.025 52.1964L353.06 52.4596ZM356.119 56.7349C357.609 57.5475 359.293 57.948 361.159 57.948V56.948C359.44 56.948 357.924 56.5805 356.598 55.8571L356.119 56.7349ZM361.159 57.948C363.312 57.948 365.572 57.2748 367.929 55.9651L367.444 55.0909C365.193 56.3412 363.101 56.948 361.159 56.948V57.948ZM367.248 55.7686L370.832 62.2966L371.709 61.8154L368.125 55.2874L367.248 55.7686ZM370.979 61.6498C369.364 62.8095 367.516 63.7036 365.431 64.3291L365.718 65.2869C367.9 64.6324 369.849 63.6918 371.562 62.4622L370.979 61.6498ZM365.428 64.3299C363.377 64.9577 361.443 65.268 359.623 65.268V66.268C361.557 66.268 363.59 65.9383 365.721 65.2861L365.428 64.3299ZM359.623 65.268C356.537 65.268 353.781 64.6223 351.343 63.3414L350.878 64.2266C353.475 65.591 356.393 66.268 359.623 66.268V65.268ZM351.346 63.343C348.957 62.066 347.061 60.2137 345.656 57.7744L344.789 58.2736C346.285 60.8689 348.315 62.8566 350.875 64.225L351.346 63.343ZM345.661 57.783C344.3 55.3093 343.611 52.3872 343.611 49H342.611C342.611 52.5248 343.329 55.6187 344.784 58.265L345.661 57.783ZM343.611 49C343.611 45.7467 344.319 42.9126 345.72 40.4816L344.853 39.9823C343.353 42.5861 342.611 45.5973 342.611 49H343.611ZM345.722 40.4785C347.132 37.9889 348.97 36.0933 351.234 34.7762L350.731 33.9118C348.301 35.3254 346.342 37.3551 344.851 39.9855L345.722 40.4785ZM351.24 34.7727C353.512 33.4097 355.919 32.732 358.471 32.732V31.732C355.731 31.732 353.147 32.4623 350.725 33.9153L351.24 34.7727ZM358.471 32.732C362.877 32.732 366.178 34.1395 368.453 36.9019L369.224 36.2661C366.721 33.2259 363.109 31.732 358.471 31.732V32.732ZM368.453 36.9019C370.754 39.6964 371.923 43.2888 371.923 47.72H372.923C372.923 43.1059 371.702 39.2743 369.224 36.2661L368.453 36.9019ZM363.579 45.16C363.579 43.7101 363.215 42.4819 362.445 41.5197L361.664 42.1443C362.26 42.8888 362.579 43.8792 362.579 45.16H363.579ZM362.445 41.5197C361.633 40.505 360.35 40.052 358.727 40.052V41.052C360.175 41.052 361.11 41.4523 361.664 42.1443L362.445 41.5197ZM358.727 40.052C357.415 40.052 356.236 40.4771 355.21 41.317L355.843 42.091C356.694 41.3949 357.649 41.052 358.727 41.052V40.052ZM355.212 41.3154C354.206 42.1295 353.503 43.3904 353.06 45.0295L354.025 45.2905C354.436 43.7723 355.055 42.7292 355.841 42.0926L355.212 41.3154ZM353.543 45.66H363.079V44.66H353.543V45.66ZM391.847 29.16L391.493 28.8064L391.487 28.813L391.481 28.8198L391.847 29.16ZM391.015 33H390.515V33.5H391.015V33ZM396.391 33H396.891V32.5H396.391V33ZM396.391 41.576V42.076H396.891V41.576H396.391ZM391.015 41.576V41.076H390.515V41.576H391.015ZM391.015 65V65.5H391.515V65H391.015ZM380.007 65H379.507V65.5H380.007V65ZM380.007 41.576H380.507V41.076H380.007V41.576ZM375.783 41.576H375.283V42.076H375.783V41.576ZM375.783 33.384L375.745 32.8854L375.283 32.9204V33.384H375.783ZM380.007 33.064L380.045 33.5626L380.507 33.5276V33.064H380.007ZM383.015 23.336L383.398 23.6574L383.401 23.6541L383.015 23.336ZM399.463 20.84L399.949 20.9558L400.053 20.521L399.632 20.3696L399.463 20.84ZM397.543 28.904L397.369 29.3729L397.899 29.5689L398.029 29.0198L397.543 28.904ZM401.127 33V32.5H400.627V33H401.127ZM412.135 33H412.635V32.5H412.135V33ZM412.135 65V65.5H412.635V65H412.135ZM401.127 65H400.627V65.5H401.127V65ZM410.855 19.56L411.194 19.1926L411.194 19.1926L410.855 19.56ZM410.855 27.496L411.194 27.8634L411.194 27.8634L410.855 27.496ZM394.343 27.764C393.18 27.764 392.208 28.0923 391.493 28.8064L392.201 29.5136C392.681 29.0331 393.372 28.764 394.343 28.764V27.764ZM391.481 28.8198C390.794 29.559 390.515 30.7445 390.515 32.232H391.515C391.515 30.8182 391.791 29.9556 392.213 29.5002L391.481 28.8198ZM390.515 32.232V33H391.515V32.232H390.515ZM391.015 33.5H396.391V32.5H391.015V33.5ZM395.891 33V41.576H396.891V33H395.891ZM396.391 41.076H391.015V42.076H396.391V41.076ZM390.515 41.576V65H391.515V41.576H390.515ZM391.015 64.5H380.007V65.5H391.015V64.5ZM380.507 65V41.576H379.507V65H380.507ZM380.007 41.076H375.783V42.076H380.007V41.076ZM376.283 41.576V33.384H375.283V41.576H376.283ZM375.821 33.8826L380.045 33.5626L379.969 32.5654L375.745 32.8854L375.821 33.8826ZM380.507 33.064V32.616H379.507V33.064H380.507ZM380.507 32.616C380.507 28.9097 381.484 25.9383 383.398 23.6574L382.632 23.0146C380.536 25.5124 379.507 28.7276 379.507 32.616H380.507ZM383.401 23.6541C385.277 21.3787 388.327 20.188 392.679 20.188V19.188C388.156 19.188 384.764 20.4293 382.629 23.0179L383.401 23.6541ZM392.679 20.188C395.014 20.188 397.218 20.563 399.294 21.3104L399.632 20.3696C397.442 19.581 395.123 19.188 392.679 19.188V20.188ZM398.977 20.7242L397.057 28.7882L398.029 29.0198L399.949 20.9558L398.977 20.7242ZM397.717 28.4351C396.523 27.9929 395.396 27.764 394.343 27.764V28.764C395.252 28.764 396.259 28.9618 397.369 29.3729L397.717 28.4351ZM401.127 33.5H412.135V32.5H401.127V33.5ZM411.635 33V65H412.635V33H411.635ZM412.135 64.5H401.127V65.5H412.135V64.5ZM401.627 65V33H400.627V65H401.627ZM406.631 28.532C405.032 28.532 403.751 28.0561 402.746 27.1286L402.068 27.8634C403.282 28.9839 404.816 29.532 406.631 29.532V28.532ZM402.746 27.1286C401.748 26.2068 401.243 25.0213 401.243 23.528H400.243C400.243 25.2773 400.848 26.7372 402.068 27.8634L402.746 27.1286ZM401.243 23.528C401.243 22.0347 401.748 20.8492 402.746 19.9274L402.068 19.1926C400.848 20.3188 400.243 21.7787 400.243 23.528H401.243ZM402.746 19.9274C403.751 18.9999 405.032 18.524 406.631 18.524V17.524C404.816 17.524 403.282 18.0721 402.068 19.1926L402.746 19.9274ZM406.631 18.524C408.23 18.524 409.511 18.9999 410.516 19.9274L411.194 19.1926C409.98 18.0721 408.446 17.524 406.631 17.524V18.524ZM410.516 19.9274C411.514 20.8492 412.019 22.0347 412.019 23.528H413.019C413.019 21.7787 412.414 20.3188 411.194 19.1926L410.516 19.9274ZM412.019 23.528C412.019 25.0213 411.514 26.2068 410.516 27.1286L411.194 27.8634C412.414 26.7372 413.019 25.2773 413.019 23.528H412.019ZM410.516 27.1286C409.511 28.0561 408.23 28.532 406.631 28.532V29.532C408.446 29.532 409.98 28.9839 411.194 27.8634L410.516 27.1286ZM419.587 33V32.5H419.087V33H419.587ZM428.547 33L429.037 32.9019L428.957 32.5H428.547V33ZM429.315 36.84L428.825 36.9381L428.905 37.34H429.315V36.84ZM429.571 36.84V37.34H429.77L429.914 37.2038L429.571 36.84ZM434.243 33.512L434.467 33.9593L434.476 33.9545L434.243 33.512ZM447.235 35.688L446.826 35.9758L446.829 35.9793L447.235 35.688ZM449.667 65V65.5H450.167V65H449.667ZM438.659 65H438.159V65.5H438.659V65ZM437.891 42.664L437.471 42.9356L437.477 42.9441L437.483 42.9523L437.891 42.664ZM433.027 42.152L433.251 42.5992L433.262 42.5938L433.272 42.5878L433.027 42.152ZM430.595 44.008L430.25 43.6463L430.095 43.794V44.008H430.595ZM430.595 65V65.5H431.095V65H430.595ZM419.587 65H419.087V65.5H419.587V65ZM419.587 33.5H428.547V32.5H419.587V33.5ZM428.057 33.0981L428.825 36.9381L429.805 36.7419L429.037 32.9019L428.057 33.0981ZM429.315 37.34H429.571V36.34H429.315V37.34ZM429.914 37.2038C431.376 35.8249 432.894 34.7454 434.467 33.9592L434.019 33.0648C432.349 33.8999 430.752 35.0391 429.228 36.4762L429.914 37.2038ZM434.476 33.9545C436.019 33.1424 437.751 32.732 439.683 32.732V31.732C437.604 31.732 435.71 32.1749 434.01 33.0695L434.476 33.9545ZM439.683 32.732C442.973 32.732 445.319 33.8338 446.826 35.9757L447.644 35.4003C445.909 32.9342 443.22 31.732 439.683 31.732V32.732ZM446.829 35.9793C448.366 38.1235 449.167 41.2055 449.167 45.288H450.167C450.167 41.0931 449.347 37.7752 447.641 35.3967L446.829 35.9793ZM449.167 45.288V65H450.167V45.288H449.167ZM449.667 64.5H438.659V65.5H449.667V64.5ZM439.159 65V46.696H438.159V65H439.159ZM439.159 46.696C439.159 45.6956 439.094 44.8354 438.958 44.1224C438.823 43.4145 438.613 42.8195 438.299 42.3757L437.483 42.9523C437.681 43.2338 437.855 43.6735 437.976 44.3096C438.096 44.9406 438.159 45.7338 438.159 46.696H439.159ZM438.311 42.3924C437.72 41.4788 436.718 41.076 435.459 41.076V42.076C436.504 42.076 437.124 42.3985 437.471 42.9356L438.311 42.3924ZM435.459 41.076C434.451 41.076 433.553 41.2825 432.782 41.7162L433.272 42.5878C433.866 42.2535 434.589 42.076 435.459 42.076V41.076ZM432.803 41.7048C432.056 42.0786 431.203 42.7364 430.25 43.6463L430.94 44.3697C431.864 43.4876 432.633 42.908 433.251 42.5992L432.803 41.7048ZM430.095 44.008V65H431.095V44.008H430.095ZM430.595 64.5H419.587V65.5H430.595V64.5ZM420.087 65V33H419.087V65H420.087ZM484.037 52.328V52.828H484.427L484.522 52.4493L484.037 52.328ZM465.605 52.328V51.828H464.95L465.123 52.4596L465.605 52.328ZM468.421 56.296L468.176 56.7318L468.182 56.7349L468.421 56.296ZM479.749 55.528L480.187 55.2874L479.945 54.8469L479.506 55.0909L479.749 55.528ZM483.333 62.056L483.625 62.4622L483.985 62.2038L483.771 61.8154L483.333 62.056ZM477.637 64.808L477.493 64.3291L477.491 64.3299L477.637 64.808ZM463.173 63.784L462.937 64.225L462.94 64.2266L463.173 63.784ZM457.285 58.024L456.847 58.265L456.852 58.2736L457.285 58.024ZM457.349 40.232L457.782 40.4817L457.784 40.4785L457.349 40.232ZM463.045 34.344L463.296 34.7762L463.302 34.7727L463.045 34.344ZM480.901 36.584L481.287 36.2661L481.287 36.2661L480.901 36.584ZM475.141 45.16V45.66H475.641V45.16H475.141ZM467.589 41.704L467.904 42.0926L467.906 42.091L467.589 41.704ZM465.605 45.16L465.122 45.0295L464.952 45.66H465.605V45.16ZM483.985 47.72C483.985 49.5754 483.837 51.0667 483.552 52.2067L484.522 52.4493C484.834 51.2 484.985 49.6193 484.985 47.72H483.985ZM484.037 51.828H465.605V52.828H484.037V51.828ZM465.123 52.4596C465.661 54.4328 466.667 55.8831 468.176 56.7318L468.666 55.8602C467.444 55.1729 466.573 53.9779 466.087 52.1964L465.123 52.4596ZM468.182 56.7349C469.671 57.5475 471.355 57.948 473.221 57.948V56.948C471.503 56.948 469.987 56.5805 468.66 55.8571L468.182 56.7349ZM473.221 57.948C475.375 57.948 477.634 57.2748 479.992 55.9651L479.506 55.0909C477.256 56.3412 475.163 56.948 473.221 56.948V57.948ZM479.311 55.7686L482.895 62.2966L483.771 61.8154L480.187 55.2874L479.311 55.7686ZM483.041 61.6498C481.426 62.8095 479.578 63.7036 477.493 64.3291L477.781 65.2869C479.962 64.6324 481.912 63.6918 483.625 62.4622L483.041 61.6498ZM477.491 64.3299C475.44 64.9577 473.505 65.268 471.685 65.268V66.268C473.619 66.268 475.653 65.9383 477.783 65.2861L477.491 64.3299ZM471.685 65.268C468.6 65.268 465.844 64.6223 463.406 63.3414L462.94 64.2266C465.537 65.591 468.456 66.268 471.685 66.268V65.268ZM463.409 63.343C461.019 62.066 459.124 60.2137 457.718 57.7744L456.852 58.2736C458.347 60.8689 460.377 62.8566 462.937 64.225L463.409 63.343ZM457.723 57.783C456.363 55.3093 455.673 52.3872 455.673 49H454.673C454.673 52.5248 455.391 55.6187 456.847 58.265L457.723 57.783ZM455.673 49C455.673 45.7467 456.381 42.9126 457.782 40.4816L456.916 39.9823C455.415 42.5861 454.673 45.5973 454.673 49H455.673ZM457.784 40.4785C459.195 37.9889 461.033 36.0933 463.296 34.7762L462.794 33.9118C460.364 35.3254 458.405 37.3551 456.914 39.9855L457.784 40.4785ZM463.302 34.7727C465.574 33.4097 467.982 32.732 470.533 32.732V31.732C467.794 31.732 465.209 32.4623 462.788 33.9153L463.302 34.7727ZM470.533 32.732C474.94 32.732 478.24 34.1395 480.515 36.9019L481.287 36.2661C478.783 33.2259 475.172 31.732 470.533 31.732V32.732ZM480.515 36.9019C482.816 39.6964 483.985 43.2888 483.985 47.72H484.985C484.985 43.1059 483.764 39.2743 481.287 36.2661L480.515 36.9019ZM475.641 45.16C475.641 43.7101 475.277 42.4819 474.507 41.5197L473.727 42.1443C474.322 42.8888 474.641 43.8792 474.641 45.16H475.641ZM474.507 41.5197C473.696 40.505 472.412 40.052 470.789 40.052V41.052C472.238 41.052 473.173 41.4523 473.727 42.1443L474.507 41.5197ZM470.789 40.052C469.477 40.052 468.299 40.4771 467.272 41.317L467.906 42.091C468.756 41.3949 469.712 41.052 470.789 41.052V40.052ZM467.274 41.3154C466.269 42.1295 465.565 43.3904 465.122 45.0295L466.088 45.2905C466.498 43.7723 467.117 42.7292 467.904 42.0926L467.274 41.3154ZM465.605 45.66H475.141V44.66H465.605V45.66Z" fill="#292929"/>
</svg>
