<svg width="452" height="723" viewBox="0 0 452 723" fill="none" xmlns="http://www.w3.org/2000/svg">
<path d="M338.982 18.5918C273.847 61.7533 283.526 248.83 283.526 248.83C283.526 248.83 213.157 230.078 148.759 240.786C84.3614 251.495 44.0159 289.738 44.0159 289.738C-0.20998 334.866 28.8863 375.787 28.8863 375.787C-7.73149 411.426 -5.99538 458.418 20.7767 486.337C-2.48695 539.897 5.51698 568.383 50.6493 596.916C31.9292 623.885 37 657.5 41.5 666.5C46 675.5 72.1139 714.86 198.146 720.826C324.178 726.792 381.164 650.415 391.688 635.081C391.688 635.081 433.178 579.74 437.034 512.779C440.89 445.817 401.817 386.981 407.171 305.135C412.526 223.288 451 109.316 451 64.56C451 19.8043 404.118 -24.5696 338.982 18.5918Z" stroke="#292929" stroke-width="2"/>
<path d="M28.5 375.5C50.5462 399.368 81.2336 409.518 131.036 413.397C199.113 414.979 261.93 381.443 265.661 349.434C269.393 317.425 253 303 253 303C245.5 296 231 292.5 211.352 291.295C166.703 288.555 109.618 312.811 103.116 320.842" stroke="#292929" stroke-width="2"/>
<path d="M20.8878 486.34C93 527.5 213.985 518.431 247.686 486.34C281.386 454.249 279.934 429.736 275.223 413.673C270.512 397.609 257.544 387.158 238.889 384.988" stroke="#292929" stroke-width="2"/>
<path d="M49.1897 596.109C126.804 619.59 188.534 617.469 229.878 596.109C271.221 574.75 281.175 502.904 236.003 495.137" stroke="#292929" stroke-width="2"/>
<path d="M121.092 711.001C227.932 722.834 245.5 679.5 249.378 655.267C253.256 631.033 228.825 601.857 207.145 605.284" stroke="#292929" stroke-width="2"/>
</svg>
