<svg width="700" height="1150" viewBox="0 0 700 1150" fill="none" xmlns="http://www.w3.org/2000/svg">
<path d="M695.34 300.017C697.393 316.442 698.427 377.738 698.814 460.567C699.201 543.35 698.943 647.541 698.427 749.672C697.911 851.803 697.137 951.872 696.493 1026.41C696.17 1063.68 695.88 1094.56 695.67 1116.13C695.566 1126.91 695.481 1135.37 695.423 1141.12C695.393 1144 695.371 1146.21 695.355 1147.69L695.342 1148.96H4.04799L4.03728 1147.75C4.02448 1146.3 4.00559 1144.14 3.98124 1141.32C3.93255 1135.69 3.86202 1127.42 3.77471 1116.86C3.60008 1095.75 3.35828 1065.49 3.08961 1028.92C2.55228 955.785 1.90749 857.393 1.47762 756.379C0.617729 554.313 0.619158 341.863 4.0535 299.975C7.48068 258.173 25.3138 184.097 75.8855 120.152C126.422 56.25 209.703 2.39618 344.202 1.02374C478.662 -0.348291 564.353 57.9477 617.487 124.796C670.655 191.688 691.232 267.161 695.34 300.017Z" stroke="#292929" stroke-width="2"/>
</svg>
