<svg width="176" height="85" viewBox="0 0 176 85" fill="none" xmlns="http://www.w3.org/2000/svg">
<path d="M3.712 33V32.5H3.212V33H3.712ZM12.672 33L13.1672 32.9309L13.1071 32.5H12.672V33ZM13.44 38.504L12.9448 38.5731L13.0049 39.004H13.44V38.504ZM13.696 38.504V39.004H13.9967L14.1377 38.7384L13.696 38.504ZM17.792 33.832L18.059 34.2548L18.0618 34.2529L17.792 33.832ZM26.752 32.872L27.2433 32.9649L27.3175 32.5727L26.9514 32.4135L26.752 32.872ZM24.96 42.344L24.8515 42.8321L25.3553 42.9441L25.4513 42.4369L24.96 42.344ZM17.6 43.176L17.8906 43.5829L17.8933 43.581L17.6 43.176ZM14.72 47.208L14.255 47.0242L14.22 47.1127V47.208H14.72ZM14.72 65V65.5H15.22V65H14.72ZM3.712 65H3.212V65.5H3.712V65ZM3.712 33.5H12.672V32.5H3.712V33.5ZM12.1768 33.0691L12.9448 38.5731L13.9352 38.4349L13.1672 32.9309L12.1768 33.0691ZM13.44 39.004H13.696V38.004H13.44V39.004ZM14.1377 38.7384C15.2157 36.7068 16.5267 35.2225 18.059 34.2547L17.525 33.4093C15.8146 34.4895 14.395 36.1199 13.2543 38.2696L14.1377 38.7384ZM18.0618 34.2529C19.6606 33.2281 21.2324 32.732 22.784 32.732V31.732C21.0076 31.732 19.2514 32.3026 17.5222 33.4111L18.0618 34.2529ZM22.784 32.732C24.4135 32.732 25.6593 32.9421 26.5526 33.3305L26.9514 32.4135C25.882 31.9485 24.4825 31.732 22.784 31.732V32.732ZM26.2607 32.7791L24.4687 42.2511L25.4513 42.4369L27.2433 32.9649L26.2607 32.7791ZM25.0685 41.8559C23.5213 41.5121 22.2844 41.332 21.376 41.332V42.332C22.1743 42.332 23.3267 42.4932 24.8515 42.8321L25.0685 41.8559ZM21.376 41.332C19.9715 41.332 18.6124 41.8255 17.3067 42.771L17.8933 43.581C19.0622 42.7345 20.2205 42.332 21.376 42.332V41.332ZM17.3094 42.7691C16.0136 43.6947 15.0039 45.1299 14.255 47.0242L15.185 47.3918C15.8868 45.6167 16.797 44.364 17.8906 43.5829L17.3094 42.7691ZM14.22 47.208V65H15.22V47.208H14.22ZM14.72 64.5H3.712V65.5H14.72V64.5ZM4.212 65V33H3.212V65H4.212ZM57.037 52.328V52.828H57.4274L57.5221 52.4493L57.037 52.328ZM38.605 52.328V51.828H37.9504L38.1226 52.4596L38.605 52.328ZM41.421 56.296L41.1758 56.7318L41.1816 56.7349L41.421 56.296ZM52.749 55.528L53.1873 55.2874L52.9455 54.8469L52.5062 55.0909L52.749 55.528ZM56.333 62.056L56.6246 62.4622L56.9845 62.2038L56.7713 61.8154L56.333 62.056ZM50.637 64.808L50.4933 64.3291L50.4906 64.3299L50.637 64.808ZM36.173 63.784L35.9373 64.225L35.9404 64.2266L36.173 63.784ZM30.285 58.024L29.8468 58.265L29.8518 58.2736L30.285 58.024ZM30.349 40.232L30.7822 40.4817L30.784 40.4785L30.349 40.232ZM36.045 34.344L36.2965 34.7762L36.3022 34.7727L36.045 34.344ZM53.901 36.584L54.287 36.2661L54.287 36.2661L53.901 36.584ZM48.141 45.16V45.66H48.641V45.16H48.141ZM40.589 41.704L40.9036 42.0926L40.9056 42.091L40.589 41.704ZM38.605 45.16L38.1223 45.0295L37.9519 45.66H38.605V45.16ZM56.985 47.72C56.985 49.5754 56.8369 51.0667 56.5519 52.2067L57.5221 52.4493C57.8344 51.2 57.985 49.6193 57.985 47.72H56.985ZM57.037 51.828H38.605V52.828H57.037V51.828ZM38.1226 52.4596C38.6608 54.4328 39.6671 55.8831 41.1759 56.7318L41.6661 55.8602C40.4443 55.1729 39.5732 53.9779 39.0874 52.1964L38.1226 52.4596ZM41.1816 56.7349C42.6713 57.5475 44.3553 57.948 46.221 57.948V56.948C44.5027 56.948 42.9867 56.5805 41.6604 55.8571L41.1816 56.7349ZM46.221 57.948C48.3749 57.948 50.6343 57.2748 52.9918 55.9651L52.5062 55.0909C50.2557 56.3412 48.1631 56.948 46.221 56.948V57.948ZM52.3107 55.7686L55.8947 62.2966L56.7713 61.8154L53.1873 55.2874L52.3107 55.7686ZM56.0414 61.6498C54.4261 62.8095 52.5783 63.7036 50.4933 64.3291L50.7807 65.2869C52.9624 64.6324 54.9119 63.6918 56.6246 62.4622L56.0414 61.6498ZM50.4906 64.3299C48.4398 64.9577 46.5054 65.268 44.685 65.268V66.268C46.6193 66.268 48.6529 65.9383 50.7834 65.2861L50.4906 64.3299ZM44.685 65.268C41.5996 65.268 38.8435 64.6223 36.4056 63.3414L35.9404 64.2266C38.5371 65.591 41.4557 66.268 44.685 66.268V65.268ZM36.4087 63.343C34.0195 62.066 32.124 60.2137 30.7182 57.7744L29.8518 58.2736C31.3474 60.8689 33.3772 62.8566 35.9373 64.225L36.4087 63.343ZM30.7231 57.783C29.3625 55.3093 28.673 52.3872 28.673 49H27.673C27.673 52.5248 28.3915 55.6187 29.8469 58.265L30.7231 57.783ZM28.673 49C28.673 45.7467 29.3813 42.9126 30.7822 40.4816L29.9158 39.9823C28.4153 42.5861 27.673 45.5973 27.673 49H28.673ZM30.784 40.4785C32.1948 37.9889 34.0327 36.0933 36.2964 34.7762L35.7936 33.9118C33.364 35.3254 31.4045 37.3551 29.914 39.9855L30.784 40.4785ZM36.3022 34.7727C38.574 33.4097 40.9815 32.732 43.533 32.732V31.732C40.7938 31.732 38.2093 32.4623 35.7878 33.9153L36.3022 34.7727ZM43.533 32.732C47.9398 32.732 51.2401 34.1395 53.515 36.9019L54.287 36.2661C51.7832 33.2259 48.1715 31.732 43.533 31.732V32.732ZM53.515 36.9019C55.8164 39.6964 56.985 43.2888 56.985 47.72H57.985C57.985 43.1059 56.7642 39.2743 54.287 36.2661L53.515 36.9019ZM48.641 45.16C48.641 43.7101 48.2772 42.4819 47.5074 41.5197L46.7266 42.1443C47.3221 42.8888 47.641 43.8792 47.641 45.16H48.641ZM47.5074 41.5197C46.6957 40.505 45.4121 40.052 43.789 40.052V41.052C45.2379 41.052 46.173 41.4523 46.7266 42.1443L47.5074 41.5197ZM43.789 40.052C42.477 40.052 41.2989 40.4771 40.2724 41.317L40.9056 42.091C41.7564 41.3949 42.7117 41.052 43.789 41.052V40.052ZM40.2744 41.3154C39.2688 42.1295 38.5653 43.3904 38.1223 45.0295L39.0877 45.2905C39.498 43.7723 40.1172 42.7292 40.9036 42.0926L40.2744 41.3154ZM38.605 45.66H48.141V44.66H38.605V45.66ZM76.9095 29.16L76.5559 28.8064L76.5494 28.813L76.5431 28.8198L76.9095 29.16ZM76.0775 33H75.5775V33.5H76.0775V33ZM81.4535 33H81.9535V32.5H81.4535V33ZM81.4535 41.576V42.076H81.9535V41.576H81.4535ZM76.0775 41.576V41.076H75.5775V41.576H76.0775ZM76.0775 65V65.5H76.5775V65H76.0775ZM65.0695 65H64.5695V65.5H65.0695V65ZM65.0695 41.576H65.5695V41.076H65.0695V41.576ZM60.8455 41.576H60.3455V42.076H60.8455V41.576ZM60.8455 33.384L60.8077 32.8854L60.3455 32.9204V33.384H60.8455ZM65.0695 33.064L65.1073 33.5626L65.5695 33.5276V33.064H65.0695ZM68.0775 23.336L68.4605 23.6574L68.4633 23.6541L68.0775 23.336ZM84.5255 20.84L85.0119 20.9558L85.1154 20.521L84.6949 20.3696L84.5255 20.84ZM82.6055 28.904L82.4318 29.3729L82.9612 29.5689L83.0919 29.0198L82.6055 28.904ZM86.1895 33V32.5H85.6895V33H86.1895ZM97.1975 33H97.6975V32.5H97.1975V33ZM97.1975 65V65.5H97.6975V65H97.1975ZM86.1895 65H85.6895V65.5H86.1895V65ZM95.9175 19.56L96.2566 19.1926L96.2566 19.1926L95.9175 19.56ZM95.9175 27.496L96.2566 27.8634L96.2566 27.8634L95.9175 27.496ZM79.4055 27.764C78.2429 27.764 77.2701 28.0923 76.5559 28.8064L77.2631 29.5136C77.7435 29.0331 78.4348 28.764 79.4055 28.764V27.764ZM76.5431 28.8198C75.8567 29.559 75.5775 30.7445 75.5775 32.232H76.5775C76.5775 30.8182 76.853 29.9556 77.2759 29.5002L76.5431 28.8198ZM75.5775 32.232V33H76.5775V32.232H75.5775ZM76.0775 33.5H81.4535V32.5H76.0775V33.5ZM80.9535 33V41.576H81.9535V33H80.9535ZM81.4535 41.076H76.0775V42.076H81.4535V41.076ZM75.5775 41.576V65H76.5775V41.576H75.5775ZM76.0775 64.5H65.0695V65.5H76.0775V64.5ZM65.5695 65V41.576H64.5695V65H65.5695ZM65.0695 41.076H60.8455V42.076H65.0695V41.076ZM61.3455 41.576V33.384H60.3455V41.576H61.3455ZM60.8833 33.8826L65.1073 33.5626L65.0317 32.5654L60.8077 32.8854L60.8833 33.8826ZM65.5695 33.064V32.616H64.5695V33.064H65.5695ZM65.5695 32.616C65.5695 28.9097 66.5462 25.9383 68.4605 23.6574L67.6945 23.0146C65.5981 25.5124 64.5695 28.7276 64.5695 32.616H65.5695ZM68.4633 23.6541C70.3395 21.3787 73.3898 20.188 77.7415 20.188V19.188C73.2185 19.188 69.8262 20.4293 67.6917 23.0179L68.4633 23.6541ZM77.7415 20.188C80.0762 20.188 82.28 20.563 84.3561 21.3104L84.6949 20.3696C82.5043 19.581 80.1854 19.188 77.7415 19.188V20.188ZM84.0391 20.7242L82.1191 28.7882L83.0919 29.0198L85.0119 20.9558L84.0391 20.7242ZM82.7792 28.4351C81.585 27.9929 80.4589 27.764 79.4055 27.764V28.764C80.3147 28.764 81.322 28.9618 82.4318 29.3729L82.7792 28.4351ZM86.1895 33.5H97.1975V32.5H86.1895V33.5ZM96.6975 33V65H97.6975V33H96.6975ZM97.1975 64.5H86.1895V65.5H97.1975V64.5ZM86.6895 65V33H85.6895V65H86.6895ZM91.6935 28.532C90.0949 28.532 88.8134 28.0561 87.8086 27.1286L87.1304 27.8634C88.3443 28.9839 89.8788 29.532 91.6935 29.532V28.532ZM87.8086 27.1286C86.81 26.2068 86.3055 25.0213 86.3055 23.528H85.3055C85.3055 25.2773 85.9103 26.7372 87.1304 27.8634L87.8086 27.1286ZM86.3055 23.528C86.3055 22.0347 86.81 20.8492 87.8086 19.9274L87.1304 19.1926C85.9103 20.3188 85.3055 21.7787 85.3055 23.528H86.3055ZM87.8086 19.9274C88.8134 18.9999 90.0949 18.524 91.6935 18.524V17.524C89.8788 17.524 88.3443 18.0721 87.1304 19.1926L87.8086 19.9274ZM91.6935 18.524C93.2921 18.524 94.5736 18.9999 95.5784 19.9274L96.2566 19.1926C95.0427 18.0721 93.5082 17.524 91.6935 17.524V18.524ZM95.5784 19.9274C96.577 20.8492 97.0815 22.0347 97.0815 23.528H98.0815C98.0815 21.7787 97.4767 20.3188 96.2566 19.1926L95.5784 19.9274ZM97.0815 23.528C97.0815 25.0213 96.577 26.2068 95.5784 27.1286L96.2566 27.8634C97.4767 26.7372 98.0815 25.2773 98.0815 23.528H97.0815ZM95.5784 27.1286C94.5736 28.0561 93.2921 28.532 91.6935 28.532V29.532C93.5082 29.532 95.0427 28.9839 96.2566 27.8634L95.5784 27.1286ZM104.65 33V32.5H104.15V33H104.65ZM113.61 33L114.1 32.9019L114.019 32.5H113.61V33ZM114.378 36.84L113.887 36.9381L113.968 37.34H114.378V36.84ZM114.634 36.84V37.34H114.832L114.977 37.2038L114.634 36.84ZM119.306 33.512L119.529 33.9593L119.538 33.9545L119.306 33.512ZM132.298 35.688L131.889 35.9758L131.891 35.9793L132.298 35.688ZM134.729 65V65.5H135.229V65H134.729ZM123.722 65H123.222V65.5H123.722V65ZM122.954 42.664L122.534 42.9356L122.539 42.9441L122.545 42.9523L122.954 42.664ZM118.09 42.152L118.313 42.5992L118.324 42.5938L118.335 42.5878L118.09 42.152ZM115.658 44.008L115.312 43.6463L115.158 43.794V44.008H115.658ZM115.658 65V65.5H116.158V65H115.658ZM104.65 65H104.15V65.5H104.65V65ZM104.65 33.5H113.61V32.5H104.65V33.5ZM113.119 33.0981L113.887 36.9381L114.868 36.7419L114.1 32.9019L113.119 33.0981ZM114.378 37.34H114.634V36.34H114.378V37.34ZM114.977 37.2038C116.439 35.8249 117.957 34.7454 119.529 33.9592L119.082 33.0648C117.412 33.8999 115.815 35.0391 114.29 36.4762L114.977 37.2038ZM119.538 33.9545C121.081 33.1424 122.813 32.732 124.746 32.732V31.732C122.667 31.732 120.772 32.1749 119.073 33.0695L119.538 33.9545ZM124.746 32.732C128.035 32.732 130.381 33.8338 131.889 35.9757L132.706 35.4003C130.971 32.9342 128.283 31.732 124.746 31.732V32.732ZM131.891 35.9793C133.428 38.1235 134.229 41.2055 134.229 45.288H135.229C135.229 41.0931 134.409 37.7752 132.704 35.3967L131.891 35.9793ZM134.229 45.288V65H135.229V45.288H134.229ZM134.729 64.5H123.722V65.5H134.729V64.5ZM124.222 65V46.696H123.222V65H124.222ZM124.222 46.696C124.222 45.6956 124.156 44.8354 124.021 44.1224C123.886 43.4145 123.675 42.8195 123.362 42.3757L122.545 42.9523C122.744 43.2338 122.917 43.6735 123.038 44.3096C123.159 44.9406 123.222 45.7338 123.222 46.696H124.222ZM123.373 42.3924C122.782 41.4788 121.78 41.076 120.522 41.076V42.076C121.567 42.076 122.186 42.3985 122.534 42.9356L123.373 42.3924ZM120.522 41.076C119.514 41.076 118.615 41.2825 117.844 41.7162L118.335 42.5878C118.929 42.2535 119.652 42.076 120.522 42.076V41.076ZM117.866 41.7048C117.118 42.0786 116.266 42.7364 115.312 43.6463L116.003 44.3697C116.927 43.4876 117.695 42.908 118.313 42.5992L117.866 41.7048ZM115.158 44.008V65H116.158V44.008H115.158ZM115.658 64.5H104.65V65.5H115.658V64.5ZM105.15 65V33H104.15V65H105.15ZM169.1 52.328V52.828H169.49L169.585 52.4493L169.1 52.328ZM150.668 52.328V51.828H150.013L150.185 52.4596L150.668 52.328ZM153.484 56.296L153.238 56.7318L153.244 56.7349L153.484 56.296ZM164.812 55.528L165.25 55.2874L165.008 54.8469L164.569 55.0909L164.812 55.528ZM168.396 62.056L168.687 62.4622L169.047 62.2038L168.834 61.8154L168.396 62.056ZM162.7 64.808L162.556 64.3291L162.553 64.3299L162.7 64.808ZM148.236 63.784L148 64.225L148.003 64.2266L148.236 63.784ZM142.348 58.024L141.909 58.265L141.914 58.2736L142.348 58.024ZM142.411 40.232L142.845 40.4817L142.847 40.4785L142.411 40.232ZM148.108 34.344L148.359 34.7762L148.365 34.7727L148.108 34.344ZM165.964 36.584L166.349 36.2661L166.349 36.2661L165.964 36.584ZM160.204 45.16V45.66H160.704V45.16H160.204ZM152.652 41.704L152.966 42.0926L152.968 42.091L152.652 41.704ZM150.668 45.16L150.185 45.0295L150.014 45.66H150.668V45.16ZM169.048 47.72C169.048 49.5754 168.899 51.0667 168.614 52.2067L169.585 52.4493C169.897 51.2 170.048 49.6193 170.048 47.72H169.048ZM169.1 51.828H150.668V52.828H169.1V51.828ZM150.185 52.4596C150.723 54.4328 151.73 55.8831 153.238 56.7318L153.729 55.8602C152.507 55.1729 151.636 53.9779 151.15 52.1964L150.185 52.4596ZM153.244 56.7349C154.734 57.5475 156.418 57.948 158.284 57.948V56.948C156.565 56.948 155.049 56.5805 153.723 55.8571L153.244 56.7349ZM158.284 57.948C160.437 57.948 162.697 57.2748 165.054 55.9651L164.569 55.0909C162.318 56.3412 160.226 56.948 158.284 56.948V57.948ZM164.373 55.7686L167.957 62.2966L168.834 61.8154L165.25 55.2874L164.373 55.7686ZM168.104 61.6498C166.489 62.8095 164.641 63.7036 162.556 64.3291L162.843 65.2869C165.025 64.6324 166.974 63.6918 168.687 62.4622L168.104 61.6498ZM162.553 64.3299C160.502 64.9577 158.568 65.268 156.748 65.268V66.268C158.682 66.268 160.715 65.9383 162.846 65.2861L162.553 64.3299ZM156.748 65.268C153.662 65.268 150.906 64.6223 148.468 63.3414L148.003 64.2266C150.6 65.591 153.518 66.268 156.748 66.268V65.268ZM148.471 63.343C146.082 62.066 144.186 60.2137 142.781 57.7744L141.914 58.2736C143.41 60.8689 145.44 62.8566 148 64.225L148.471 63.343ZM142.786 57.783C141.425 55.3093 140.736 52.3872 140.736 49H139.736C139.736 52.5248 140.454 55.6187 141.909 58.265L142.786 57.783ZM140.736 49C140.736 45.7467 141.444 42.9126 142.845 40.4816L141.978 39.9823C140.478 42.5861 139.736 45.5973 139.736 49H140.736ZM142.847 40.4785C144.257 37.9889 146.095 36.0933 148.359 34.7762L147.856 33.9118C145.426 35.3254 143.467 37.3551 141.976 39.9855L142.847 40.4785ZM148.365 34.7727C150.637 33.4097 153.044 32.732 155.596 32.732V31.732C152.856 31.732 150.272 32.4623 147.85 33.9153L148.365 34.7727ZM155.596 32.732C160.002 32.732 163.303 34.1395 165.578 36.9019L166.349 36.2661C163.846 33.2259 160.234 31.732 155.596 31.732V32.732ZM165.578 36.9019C167.879 39.6964 169.048 43.2888 169.048 47.72H170.048C170.048 43.1059 168.827 39.2743 166.349 36.2661L165.578 36.9019ZM160.704 45.16C160.704 43.7101 160.34 42.4819 159.57 41.5197L158.789 42.1443C159.385 42.8888 159.704 43.8792 159.704 45.16H160.704ZM159.57 41.5197C158.758 40.505 157.475 40.052 155.852 40.052V41.052C157.3 41.052 158.235 41.4523 158.789 42.1443L159.57 41.5197ZM155.852 40.052C154.54 40.052 153.361 40.4771 152.335 41.317L152.968 42.091C153.819 41.3949 154.774 41.052 155.852 41.052V40.052ZM152.337 41.3154C151.331 42.1295 150.628 43.3904 150.185 45.0295L151.15 45.2905C151.561 43.7723 152.18 42.7292 152.966 42.0926L152.337 41.3154ZM150.668 45.66H160.204V44.66H150.668V45.66Z" fill="#292929"/>
</svg>
