<svg width="159" height="85" viewBox="0 0 159 85" fill="none" xmlns="http://www.w3.org/2000/svg">
<path d="M7.04 64.552L6.86343 65.0199L6.87405 65.0237L7.04 64.552ZM1.152 61.288L0.745652 60.9967L0.468405 61.3833L0.840878 61.6794L1.152 61.288ZM6.016 54.504L6.3122 54.1012L5.90451 53.8014L5.60965 54.2127L6.016 54.504ZM16.256 57.256L16.5245 57.6779L16.5334 57.672L16.256 57.256ZM16 54.248L16.2451 53.8122L16.2451 53.8122L16 54.248ZM12.48 52.712L12.2943 53.1763L12.3005 53.1787L12.48 52.712ZM11.776 52.456L11.5524 52.9032L11.5842 52.9191L11.6179 52.9303L11.776 52.456ZM10.88 52.072L10.6955 52.5368L10.7044 52.5402L10.88 52.072ZM6.272 35.112L6.58784 35.4996L6.58862 35.499L6.272 35.112ZM21.888 33.384L22.0773 32.9212L21.888 33.384ZM27.264 36.456L27.6649 36.7547L27.9627 36.3551L27.564 36.056L27.264 36.456ZM22.4 42.984L22.1067 43.389L22.5062 43.6783L22.8009 43.2827L22.4 42.984ZM14.08 43.624L13.8349 44.0598L13.8455 44.0658L13.8564 44.0712L14.08 43.624ZM17.536 45.032L17.3631 45.5012L17.3885 45.5105L17.4147 45.5171L17.536 45.032ZM19.072 45.544L19.2476 45.0758L19.2476 45.0758L19.072 45.544ZM24.96 49.064L24.6167 49.4275L24.96 49.064ZM23.68 62.824L23.9974 63.2104L24.0014 63.207L23.68 62.824ZM13.568 65.268C11.5862 65.268 9.46663 64.8758 7.20595 64.0803L6.87405 65.0237C9.22137 65.8496 11.4538 66.268 13.568 66.268V65.268ZM7.21653 64.0842C4.99721 63.2467 3.08136 62.1829 1.46312 60.8966L0.840878 61.6794C2.55064 63.0385 4.56013 64.1506 6.86347 65.0198L7.21653 64.0842ZM1.55835 61.5793L6.42235 54.7953L5.60965 54.2127L0.745652 60.9967L1.55835 61.5793ZM5.71981 54.9068C8.6619 57.0701 11.3685 58.204 13.824 58.204V57.204C11.6715 57.204 9.17277 56.2045 6.3122 54.1012L5.71981 54.9068ZM13.824 58.204C14.9887 58.204 15.926 58.0587 16.5244 57.6778L15.9876 56.8342C15.6473 57.0507 14.9633 57.204 13.824 57.204V58.204ZM16.5334 57.672C17.191 57.2336 17.524 56.5832 17.524 55.784H16.524C16.524 56.2648 16.345 56.5957 15.9787 56.84L16.5334 57.672ZM17.524 55.784C17.524 54.9203 17.0437 54.2614 16.2451 53.8122L15.7549 54.6838C16.3216 55.0026 16.524 55.3677 16.524 55.784H17.524ZM16.2451 53.8122C15.5281 53.4089 14.325 52.8859 12.6595 52.2453L12.3005 53.1787C13.963 53.8181 15.1066 54.3191 15.7549 54.6838L16.2451 53.8122ZM12.6657 52.2478C12.4419 52.1582 12.1979 52.0696 11.9341 51.9817L11.6179 52.9303C11.8661 53.0131 12.0915 53.0951 12.2943 53.1762L12.6657 52.2478ZM11.9996 52.0088C11.7244 51.8712 11.4091 51.7364 11.0556 51.6038L10.7044 52.5402C11.0336 52.6636 11.3156 52.7848 11.5524 52.9032L11.9996 52.0088ZM11.0644 51.6073C8.42403 50.5595 6.48701 49.2767 5.21272 47.7799C3.94642 46.2925 3.316 44.573 3.316 42.6H2.316C2.316 44.8084 3.02958 46.7582 4.45128 48.4281C5.86499 50.0887 7.95997 51.4512 10.6956 52.5367L11.0644 51.6073ZM3.316 42.6C3.316 39.6273 4.40667 37.2769 6.58784 35.4996L5.95616 34.7244C3.52933 36.7018 2.316 39.3433 2.316 42.6H3.316ZM6.58862 35.499C8.82528 33.669 11.7762 32.732 15.488 32.732V31.732C11.6051 31.732 8.41205 32.715 5.95538 34.725L6.58862 35.499ZM15.488 32.732C17.8238 32.732 19.8911 33.1073 21.6987 33.8468L22.0773 32.9212C20.1302 32.1247 17.9309 31.732 15.488 31.732V32.732ZM21.6987 33.8468C23.5346 34.5978 25.2896 35.6002 26.964 36.856L27.564 36.056C25.825 34.7518 23.9961 33.7062 22.0773 32.9212L21.6987 33.8468ZM26.8631 36.1573L21.9991 42.6853L22.8009 43.2827L27.6649 36.7547L26.8631 36.1573ZM22.6933 42.579C20.1823 40.7608 17.9023 39.796 15.872 39.796V40.796C17.5964 40.796 19.6684 41.6232 22.1067 43.389L22.6933 42.579ZM15.872 39.796C14.8964 39.796 14.0791 39.9483 13.4916 40.3222C12.8657 40.7204 12.556 41.3348 12.556 42.088H13.556C13.556 41.6465 13.7156 41.3649 14.0284 41.1658C14.3796 40.9424 14.9703 40.796 15.872 40.796V39.796ZM12.556 42.088C12.556 42.9517 13.0363 43.6106 13.8349 44.0598L14.3251 43.1882C13.7584 42.8694 13.556 42.5043 13.556 42.088H12.556ZM13.8564 44.0712C14.5659 44.426 15.7405 44.9034 17.3631 45.5012L17.7089 44.5628C16.0888 43.966 14.9594 43.5047 14.3036 43.1768L13.8564 44.0712ZM17.4147 45.5171C17.727 45.5951 18.2169 45.7574 18.8964 46.0122L19.2476 45.0758C18.5617 44.8186 18.0276 44.6395 17.6573 44.5469L17.4147 45.5171ZM18.8964 46.0122C21.2361 46.8895 23.138 48.031 24.6167 49.4275L25.3033 48.7005C23.71 47.1957 21.6866 45.9905 19.2476 45.0758L18.8964 46.0122ZM24.6167 49.4275C26.0303 50.7626 26.764 52.6447 26.764 55.144H27.764C27.764 52.4379 26.9617 50.2668 25.3033 48.7005L24.6167 49.4275ZM26.764 55.144C26.764 58.1106 25.6349 60.5305 23.3586 62.441L24.0014 63.207C26.5038 61.1068 27.764 58.4067 27.764 55.144H26.764ZM23.3626 62.4376C21.093 64.3019 17.8507 65.268 13.568 65.268V66.268C17.9893 66.268 21.4883 65.2714 23.9974 63.2104L23.3626 62.4376ZM39.0495 63.784L38.8047 64.22L38.8106 64.2232L39.0495 63.784ZM33.1615 57.96L32.7264 58.2066L32.7315 58.2151L33.1615 57.96ZM33.1615 40.104L32.7296 39.8521L32.7283 39.8543L33.1615 40.104ZM39.0495 34.28L39.2884 34.7193L39.2943 34.716L39.0495 34.28ZM54.6655 34.28L54.4207 34.716L54.4266 34.7192L54.6655 34.28ZM60.4895 40.104L60.0544 40.3506L60.0595 40.3591L60.4895 40.104ZM60.4895 57.96L60.0576 57.7081L60.0563 57.7104L60.4895 57.96ZM54.6655 63.784L54.9044 64.2233L54.9103 64.22L54.6655 63.784ZM46.8575 65.268C44.1675 65.268 41.6469 64.6275 39.2884 63.3448L38.8106 64.2232C41.3161 65.5859 44.0009 66.268 46.8575 66.268V65.268ZM39.2943 63.348C36.9427 62.0278 35.0424 60.1506 33.5915 57.7049L32.7315 58.2151C34.2673 60.8041 36.2923 62.8095 38.8047 64.22L39.2943 63.348ZM33.5965 57.7135C32.1948 55.2399 31.4855 52.3409 31.4855 49H30.4855C30.4855 52.4858 31.2268 55.5601 32.7265 58.2065L33.5965 57.7135ZM31.4855 49C31.4855 45.6589 32.1949 42.7827 33.5947 40.3536L32.7283 39.8543C31.2268 42.4599 30.4855 45.5145 30.4855 49H31.4855ZM33.5934 40.3559C35.0441 37.869 36.9423 35.9952 39.2884 34.7192L38.8106 33.8408C36.2927 35.2102 34.2656 37.219 32.7296 39.8521L33.5934 40.3559ZM39.2943 34.716C41.652 33.3924 44.1704 32.732 46.8575 32.732V31.732C43.9979 31.732 41.311 32.437 38.8047 33.844L39.2943 34.716ZM46.8575 32.732C49.5446 32.732 52.063 33.3924 54.4207 34.716L54.9103 33.844C52.404 32.437 49.7171 31.732 46.8575 31.732V32.732ZM54.4266 34.7192C56.7713 35.9944 58.6469 37.8665 60.0545 40.3505L60.9245 39.8575C59.4308 37.2215 57.4237 35.2109 54.9044 33.8408L54.4266 34.7192ZM60.0595 40.3591C61.4999 42.7872 62.2295 45.6613 62.2295 49H63.2295C63.2295 45.512 62.4658 42.4555 60.9195 39.8489L60.0595 40.3591ZM62.2295 49C62.2295 52.3384 61.4999 55.2355 60.0576 57.7081L60.9214 58.2119C62.4657 55.5645 63.2295 52.4882 63.2295 49H62.2295ZM60.0563 57.7104C58.6486 60.1531 56.7709 62.0286 54.4207 63.348L54.9103 64.22C57.4241 62.8087 59.4291 60.8015 60.9227 58.2096L60.0563 57.7104ZM54.4266 63.3448C52.0681 64.6275 49.5475 65.268 46.8575 65.268V66.268C49.7141 66.268 52.3989 65.5859 54.9044 64.2232L54.4266 63.3448ZM46.8575 57.436C48.5707 57.436 49.8879 56.6806 50.7459 55.2031C51.5797 53.767 51.9655 51.6773 51.9655 49H50.9655C50.9655 51.6133 50.5833 53.4917 49.8811 54.7009C49.2031 55.8687 48.2163 56.436 46.8575 56.436V57.436ZM51.9655 49C51.9655 46.3227 51.5797 44.233 50.7459 42.7969C49.8879 41.3194 48.5707 40.564 46.8575 40.564V41.564C48.2163 41.564 49.2031 42.1313 49.8811 43.2991C50.5833 44.5083 50.9655 46.3867 50.9655 49H51.9655ZM46.8575 40.564C45.1443 40.564 43.8271 41.3194 42.9691 42.7969C42.1353 44.233 41.7495 46.3227 41.7495 49H42.7495C42.7495 46.3867 43.1317 44.5083 43.8339 43.2991C44.5119 42.1313 45.4987 41.564 46.8575 41.564V40.564ZM41.7495 49C41.7495 51.6773 42.1353 53.767 42.9691 55.2031C43.8271 56.6806 45.1443 57.436 46.8575 57.436V56.436C45.4987 56.436 44.5119 55.8687 43.8339 54.7009C43.1317 53.4917 42.7495 51.6133 42.7495 49H41.7495ZM70.702 62.632L70.2951 62.9226L70.2991 62.928L70.702 62.632ZM68.462 20.456V19.956H67.962V20.456H68.462ZM79.47 20.456H79.97V19.956H79.47V20.456ZM79.982 56.296L79.5776 56.5901L79.5929 56.6111L79.6104 56.6305L79.982 56.296ZM82.414 56.808L82.9078 56.7296L82.8223 56.1905L82.2927 56.3229L82.414 56.808ZM83.694 64.872L83.8998 65.3277L84.2477 65.1706L84.1878 64.7936L83.694 64.872ZM78.318 65.268C74.8731 65.268 72.5149 64.2551 71.1049 62.336L70.2991 62.928C71.9611 65.1902 74.6802 66.268 78.318 66.268V65.268ZM71.1089 62.3414C69.6994 60.3681 68.962 57.5206 68.962 53.736H67.962C67.962 57.6314 68.718 60.7146 70.2951 62.9226L71.1089 62.3414ZM68.962 53.736V20.456H67.962V53.736H68.962ZM68.462 20.956H79.47V19.956H68.462V20.956ZM78.97 20.456V54.12H79.97V20.456H78.97ZM78.97 54.12C78.97 55.1412 79.1442 55.9942 79.5776 56.5901L80.3864 56.0019C80.1371 55.6592 79.97 55.0615 79.97 54.12H78.97ZM79.6104 56.6305C80.0663 57.1371 80.62 57.436 81.262 57.436V56.436C80.9654 56.436 80.6657 56.3083 80.3536 55.9615L79.6104 56.6305ZM81.262 57.436C81.7212 57.436 82.1469 57.3902 82.5353 57.2931L82.2927 56.3229C81.9984 56.3965 81.6561 56.436 81.262 56.436V57.436ZM81.9202 56.8864L83.2002 64.9504L84.1878 64.7936L82.9078 56.7296L81.9202 56.8864ZM83.4882 64.4163C82.2562 64.9727 80.5439 65.268 78.318 65.268V66.268C80.6148 66.268 82.4865 65.966 83.8998 65.3277L83.4882 64.4163ZM84.5805 33V32.5H83.8903L84.1054 33.1558L84.5805 33ZM95.5885 33L96.0738 32.8798L95.9798 32.5H95.5885V33ZM99.0445 46.952L99.5318 46.8396L99.5298 46.8318L99.0445 46.952ZM101.349 56.936L100.861 57.0484L100.951 57.436H101.349V56.936ZM101.605 56.936V57.436H102.002L102.092 57.0484L101.605 56.936ZM103.909 46.952L103.423 46.8318L103.421 46.8396L103.909 46.952ZM107.365 33V32.5H106.973L106.879 32.8798L107.365 33ZM117.861 33L118.337 33.1507L118.543 32.5H117.861V33ZM107.749 65V65.5H108.115L108.225 65.1507L107.749 65ZM95.0765 65L94.6014 65.1558L94.7143 65.5H95.0765V65ZM84.5805 33.5H95.5885V32.5H84.5805V33.5ZM95.1032 33.1202L98.5592 47.0722L99.5298 46.8318L96.0738 32.8798L95.1032 33.1202ZM98.5573 47.0644L100.861 57.0484L101.836 56.8236L99.5317 46.8396L98.5573 47.0644ZM101.349 57.436H101.605V56.436H101.349V57.436ZM102.092 57.0484L104.396 47.0644L103.421 46.8396L101.117 56.8236L102.092 57.0484ZM104.394 47.0722L107.85 33.1202L106.879 32.8798L103.423 46.8318L104.394 47.0722ZM107.365 33.5H117.861V32.5H107.365V33.5ZM117.384 32.8493L107.272 64.8493L108.225 65.1507L118.337 33.1507L117.384 32.8493ZM107.749 64.5H95.0765V65.5H107.749V64.5ZM95.5516 64.8442L85.0556 32.8442L84.1054 33.1558L94.6014 65.1558L95.5516 64.8442ZM148.912 52.328V52.828H149.302L149.397 52.4493L148.912 52.328ZM130.48 52.328V51.828H129.825L129.998 52.4596L130.48 52.328ZM133.296 56.296L133.051 56.7318L133.057 56.7349L133.296 56.296ZM144.624 55.528L145.062 55.2874L144.82 54.8469L144.381 55.0909L144.624 55.528ZM148.208 62.056L148.5 62.4622L148.86 62.2038L148.646 61.8154L148.208 62.056ZM142.512 64.808L142.368 64.3291L142.366 64.3299L142.512 64.808ZM128.048 63.784L127.812 64.225L127.815 64.2266L128.048 63.784ZM122.16 58.024L121.722 58.265L121.727 58.2736L122.16 58.024ZM122.224 40.232L122.657 40.4817L122.659 40.4785L122.224 40.232ZM127.92 34.344L128.171 34.7762L128.177 34.7727L127.92 34.344ZM145.776 36.584L146.162 36.2661L146.162 36.2661L145.776 36.584ZM140.016 45.16V45.66H140.516V45.16H140.016ZM132.464 41.704L132.779 42.0926L132.781 42.091L132.464 41.704ZM130.48 45.16L129.997 45.0295L129.827 45.66H130.48V45.16ZM148.86 47.72C148.86 49.5754 148.712 51.0667 148.427 52.2067L149.397 52.4493C149.709 51.2 149.86 49.6193 149.86 47.72H148.86ZM148.912 51.828H130.48V52.828H148.912V51.828ZM129.998 52.4596C130.536 54.4328 131.542 55.8831 133.051 56.7318L133.541 55.8602C132.319 55.1729 131.448 53.9779 130.962 52.1964L129.998 52.4596ZM133.057 56.7349C134.546 57.5475 136.23 57.948 138.096 57.948V56.948C136.378 56.948 134.862 56.5805 133.535 55.8571L133.057 56.7349ZM138.096 57.948C140.25 57.948 142.509 57.2748 144.867 55.9651L144.381 55.0909C142.131 56.3412 140.038 56.948 138.096 56.948V57.948ZM144.186 55.7686L147.77 62.2966L148.646 61.8154L145.062 55.2874L144.186 55.7686ZM147.916 61.6498C146.301 62.8095 144.453 63.7036 142.368 64.3291L142.656 65.2869C144.837 64.6324 146.787 63.6918 148.5 62.4622L147.916 61.6498ZM142.366 64.3299C140.315 64.9577 138.38 65.268 136.56 65.268V66.268C138.494 66.268 140.528 65.9383 142.658 65.2861L142.366 64.3299ZM136.56 65.268C133.475 65.268 130.719 64.6223 128.281 63.3414L127.815 64.2266C130.412 65.591 133.331 66.268 136.56 66.268V65.268ZM128.284 63.343C125.894 62.066 123.999 60.2137 122.593 57.7744L121.727 58.2736C123.222 60.8689 125.252 62.8566 127.812 64.225L128.284 63.343ZM122.598 57.783C121.238 55.3093 120.548 52.3872 120.548 49H119.548C119.548 52.5248 120.266 55.6187 121.722 58.265L122.598 57.783ZM120.548 49C120.548 45.7467 121.256 42.9126 122.657 40.4816L121.791 39.9823C120.29 42.5861 119.548 45.5973 119.548 49H120.548ZM122.659 40.4785C124.07 37.9889 125.908 36.0933 128.171 34.7762L127.669 33.9118C125.239 35.3254 123.28 37.3551 121.789 39.9855L122.659 40.4785ZM128.177 34.7727C130.449 33.4097 132.857 32.732 135.408 32.732V31.732C132.669 31.732 130.084 32.4623 127.663 33.9153L128.177 34.7727ZM135.408 32.732C139.815 32.732 143.115 34.1395 145.39 36.9019L146.162 36.2661C143.658 33.2259 140.047 31.732 135.408 31.732V32.732ZM145.39 36.9019C147.691 39.6964 148.86 43.2888 148.86 47.72H149.86C149.86 43.1059 148.639 39.2743 146.162 36.2661L145.39 36.9019ZM140.516 45.16C140.516 43.7101 140.152 42.4819 139.382 41.5197L138.602 42.1443C139.197 42.8888 139.516 43.8792 139.516 45.16H140.516ZM139.382 41.5197C138.571 40.505 137.287 40.052 135.664 40.052V41.052C137.113 41.052 138.048 41.4523 138.602 42.1443L139.382 41.5197ZM135.664 40.052C134.352 40.052 133.174 40.4771 132.147 41.317L132.781 42.091C133.631 41.3949 134.587 41.052 135.664 41.052V40.052ZM132.149 41.3154C131.144 42.1295 130.44 43.3904 129.997 45.0295L130.963 45.2905C131.373 43.7723 131.992 42.7292 132.779 42.0926L132.149 41.3154ZM130.48 45.66H140.016V44.66H130.48V45.66Z" fill="#292929"/>
</svg>
